<?xml version="1.0" encoding="UTF-8" standalone="no"?>
<!-- Created with Inkscape (http://www.inkscape.org/) -->

<svg
   width="448.28662"
   height="170"
   viewBox="0 0 118.60917 44.979167"
   version="1.1"
   id="svg13115"
   inkscape:version="1.1.1 (3bf5ae0d25, 2021-09-20)"
   sodipodi:docname="logo-site-branco.svg"
   xmlns:inkscape="http://www.inkscape.org/namespaces/inkscape"
   xmlns:sodipodi="http://sodipodi.sourceforge.net/DTD/sodipodi-0.dtd"
   xmlns="http://www.w3.org/2000/svg"
   xmlns:svg="http://www.w3.org/2000/svg">
  <sodipodi:namedview
     id="namedview13117"
     pagecolor="#ffffff"
     bordercolor="#666666"
     borderopacity="1.0"
     inkscape:pageshadow="2"
     inkscape:pageopacity="0.0"
     inkscape:pagecheckerboard="0"
     inkscape:document-units="mm"
     showgrid="false"
     inkscape:zoom="1.5500843"
     inkscape:cx="-24.192233"
     inkscape:cy="46.126524"
     inkscape:window-width="1852"
     inkscape:window-height="1016"
     inkscape:window-x="68"
     inkscape:window-y="27"
     inkscape:window-maximized="1"
     inkscape:current-layer="g4410-2-6"
     borderlayer="true"
     inkscape:showpageshadow="false"
     inkscape:snap-global="false"
     units="px" />
  <defs
     id="defs13112">
    <filter
       inkscape:collect="always"
       style="color-interpolation-filters:sRGB"
       id="filter4606-1-46"
       x="-0.10855543"
       width="1.2169935"
       y="-0.062987742"
       height="1.1259783">
      <feGaussianBlur
         inkscape:collect="always"
         stdDeviation="4.9497865"
         id="feGaussianBlur4608-3-83" />
    </filter>
  </defs>
  <g
     inkscape:label="Camada 1"
     inkscape:groupmode="layer"
     id="layer1"
     transform="translate(-91.622154,-86.731461)">
    <g
       inkscape:export-ydpi="296.04001"
       inkscape:export-xdpi="296.04001"
       inkscape:export-filename="/home/noel/www/Programador/0-logo.png"
       id="g1492-0-1"
       transform="matrix(0.17266381,0,0,0.17266381,197.58949,-37.4779)">
      <g
         style="filter:url(#filter4606-1-46);enable-background:new"
         id="g4288-3-0"
         transform="matrix(1.4514989,0,0,1.4514989,2748.8985,-956.70639)">
        <g
           id="g4290-2-8"
           transform="matrix(-1.2068296,0,0,1.2068296,404.27412,468.11726)">
          <g
             transform="matrix(0.82151079,0,0,0.82151079,1718.6447,-108.33181)"
             id="g4292-1-9"
             style="stroke:#ffffff;stroke-width:5.50449;stroke-miterlimit:4;stroke-dasharray:none;stroke-opacity:1">
            <g
               id="g4294-7-0"
               transform="matrix(-0.77305454,0,0,0.77305454,713.22421,820.84802)"
               inkscape:export-filename="/home/noel/www/Programador/Rascunhos/caneca.png"
               inkscape:export-xdpi="90"
               inkscape:export-ydpi="90"
               style="stroke:#ffffff;stroke-width:7.12045;stroke-miterlimit:4;stroke-dasharray:none;stroke-opacity:1">
              <g
                 transform="translate(-453.33333,-5.3333333)"
                 id="g4296-5-1"
                 style="stroke:#ffffff;stroke-width:7.12045;stroke-miterlimit:4;stroke-dasharray:none;stroke-opacity:1">
                <path
                   style="fill:#ffffff;stroke:#ffffff;stroke-width:7.59514;stroke-linecap:butt;stroke-linejoin:miter;stroke-miterlimit:4;stroke-dasharray:none;stroke-opacity:1"
                   d="m 671.39659,225.0802 c 13.35122,-0.66756 16.80446,3.57212 23.32412,-1.21366 3.77127,-2.76828 1.92921,-10.3926 6.00804,-12.68364 7.41314,-4.16386 19.03606,-3.00492 25.3673,2.67023 3.90006,3.49588 2.89525,10.4437 1.9217,15.58993 -1.19307,6.30661 -3.73507,10.60526 -9.50086,13.42522 -8.21753,4.01906 -17.98645,0.29488 -27.13395,0.35752 -5.13714,0.0352 -14.64583,-0.78903 -14.64583,-0.78903 v 0"
                   id="path4298-6-3"
                   inkscape:connector-curvature="0"
                   sodipodi:nodetypes="csssssscc" />
                <path
                   style="fill:#ffffff;stroke:#ffffff;stroke-width:7.59514;stroke-linecap:butt;stroke-linejoin:miter;stroke-miterlimit:4;stroke-dasharray:none;stroke-opacity:1"
                   d="m 700.58027,207.98724 c 1.37351,1.08626 5.26518,38.68661 1.65216,38.23498 l 14.39711,-0.70809 10.1488,-37.29088 z"
                   id="path4300-5-4"
                   inkscape:connector-curvature="0"
                   sodipodi:nodetypes="ccccc" />
                <path
                   sodipodi:nodetypes="ccccc"
                   inkscape:connector-curvature="0"
                   id="path4302-4-8"
                   d="m 702.29454,214.46342 c 1.37351,1.08627 3.55091,32.21043 -0.0621,31.7588 l 14.39711,-0.70809 8.24404,-30.62421 z"
                   style="fill:#000000;stroke:#ffffff;stroke-width:7.59514;stroke-linecap:butt;stroke-linejoin:miter;stroke-miterlimit:4;stroke-dasharray:none;stroke-opacity:1" />
                <path
                   style="fill:#ffffff;stroke:#ffffff;stroke-width:7.59514;stroke-linecap:butt;stroke-linejoin:miter;stroke-miterlimit:4;stroke-dasharray:none;stroke-opacity:1"
                   d="m 700.10169,212.06276 c 0,0 7.66769,3.54988 8.12526,9.00512 0.33699,4.01745 -0.23869,5.41214 -4.25815,5.72461 -3.32775,0.2588 -7.42416,-3.76241 -7.42416,-3.76241"
                   id="path4304-2-5"
                   inkscape:connector-curvature="0"
                   sodipodi:nodetypes="cssc" />
                <path
                   style="fill:#ffffff;stroke:#ffffff;stroke-width:7.59514;stroke-linecap:round;stroke-linejoin:miter;stroke-miterlimit:4;stroke-dasharray:none;stroke-opacity:1"
                   d="m 726.06251,234.99585 c 0,0 -10.60228,-3.26379 -13.27717,-0.90359 -1.33743,1.18009 -1.2687,3.82151 -0.33378,5.34047 1.33244,2.16478 7.00939,3.00404 7.00939,3.00404"
                   id="path4306-2-8"
                   inkscape:connector-curvature="0"
                   sodipodi:nodetypes="cssc" />
                <path
                   style="fill:#ffffff;stroke:#ffffff;stroke-width:7.59514;stroke-linecap:round;stroke-linejoin:miter;stroke-miterlimit:4;stroke-dasharray:none;stroke-opacity:1"
                   d="m 728.07501,224.11935 c 0,0 -9.10687,-4.91728 -12.61943,-1.04185 -1.88136,2.07574 -1.09427,6.48534 1.00135,8.34453 2.49683,2.21511 10.0134,0 10.0134,0"
                   id="path4308-1-2"
                   inkscape:connector-curvature="0"
                   sodipodi:nodetypes="cssc" />
                <path
                   style="fill:#ffffff;stroke:#ffffff;stroke-width:7.59514;stroke-linecap:round;stroke-linejoin:miter;stroke-miterlimit:4;stroke-dasharray:none;stroke-opacity:1"
                   d="m 727.91997,221.68512 c 0,0 -10.27583,3.42355 -14.13327,-0.2765 -1.92705,-1.84843 -1.91282,-6.14759 0,-8.01073 3.02968,-2.95099 12.68363,0.33378 12.68363,0.33378"
                   id="path4310-7-2"
                   inkscape:connector-curvature="0"
                   sodipodi:nodetypes="cssc" />
                <path
                   style="fill:none;stroke:#ffffff;stroke-width:7.59514;stroke-linecap:butt;stroke-linejoin:miter;stroke-miterlimit:4;stroke-dasharray:none;stroke-opacity:1"
                   d="m 697.43145,130.62038 c 0,0 36.11409,-4.90887 38.7185,8.01073 2.64063,13.0993 -31.86493,9.38639 -33.04422,22.69705 -1.02067,11.52003 24.76745,12.80097 24.69973,24.36595 -0.0497,8.49796 -16.15017,9.48403 -18.35792,17.69038 -0.21041,0.78218 0.66757,2.33645 0.66757,2.33645"
                   id="path4312-2-06"
                   inkscape:connector-curvature="0"
                   sodipodi:nodetypes="sssssc" />
              </g>
              <path
                 style="fill:#ffffff;stroke:#ffffff;stroke-width:7.59514;stroke-linecap:butt;stroke-linejoin:miter;stroke-miterlimit:4;stroke-dasharray:none;stroke-opacity:1"
                 d="m 181.4329,280.82991 -1.69441,55.90304 -41.34597,0.2526 c -0.48246,-14.42502 1.16568,-37.23287 8.7117,-55.67212"
                 id="path4314-4-3"
                 inkscape:connector-curvature="0"
                 sodipodi:nodetypes="cccc" />
              <path
                 sodipodi:nodetypes="cccc"
                 style="fill:#ffffff;stroke:#ffffff;stroke-width:7.59514;stroke-linecap:butt;stroke-linejoin:miter;stroke-miterlimit:4;stroke-dasharray:none;stroke-opacity:1"
                 d="m 216.24507,279.37941 c 9.28122,14.23413 9.35586,40.13905 6.76903,58.09831 l -42.78779,-0.013 c -1.87492,-15.11572 -2.49348,-38.04906 1.69008,-55.18427"
                 id="path4316-1-6"
                 inkscape:connector-curvature="0" />
              <path
                 style="fill:#000000;stroke:#ffffff;stroke-width:7.59514;stroke-linecap:butt;stroke-linejoin:miter;stroke-miterlimit:4;stroke-dasharray:none;stroke-opacity:1"
                 d="m 154.84026,144.96571 c 0,0 -19.97518,1.94853 -28.04314,7.25253 -17.50158,11.50581 -24.15942,48.93674 -20.7906,50.28427 l 34.81217,0.4835 c -9.9768,25.32853 -15.96838,51.2264 -16.92259,77.8439 33.01519,0.70923 66.3549,2.71658 98.151,-1.4505 18.73418,-69.87752 -8.33266,-96.3701 -32.87817,-126.67764"
                 id="path4318-6-1"
                 inkscape:connector-curvature="0"
                 sodipodi:nodetypes="csccccc" />
              <path
                 style="fill:#ffffff;stroke:#ffffff;stroke-width:7.59514;stroke-linecap:butt;stroke-linejoin:miter;stroke-miterlimit:4;stroke-dasharray:none;stroke-opacity:1"
                 d="m 194.46405,42.576284 c 23.28676,21.39256 10.54943,97.838436 9.77313,97.579676 0,0 -16.2837,-9.32137 -23.24836,-13.67553 -3.36345,1.9237 -2.29513,8.50236 0,11.62419 2.26316,3.0783 10.94042,3.41887 10.94042,3.41887 0,0 -2.49372,10.53143 -6.83776,12.30798 -9.67915,3.9584 -30.08614,-8.8891 -30.08614,-8.8891 -5.79221,-1.71135 -10.30881,-84.788419 0.91839,-102.746505 7.53884,-12.058495 28.06753,-9.240491 38.54032,0.380419 z"
                 id="path4320-5-05"
                 inkscape:connector-curvature="0"
                 sodipodi:nodetypes="sccscssss" />
              <path
                 style="fill:#ffffff;stroke:#ffffff;stroke-width:7.59514;stroke-linecap:butt;stroke-linejoin:miter;stroke-miterlimit:4;stroke-dasharray:none;stroke-opacity:1"
                 d="m 191.92921,95.710528 c 0,0 25.4596,-5.613788 28.19107,5.157672 1.52403,6.01001 -1.58152,13.54173 -7.67778,14.67181 -9.88363,1.83211 -25.29971,-11.62417 -25.29971,-11.62417"
                 id="path4322-7-7"
                 inkscape:connector-curvature="0"
                 sodipodi:nodetypes="cssc" />
              <path
                 id="path4324-8-4"
                 style="fill:#ffffff;stroke-width:7.59514"
                 d="m 163.20321,99.917242 a 12.307963,12.649852 0 0 1 -13.95458,0.760918 12.307963,12.649852 0 0 1 -5.65226,-13.135077 12.307963,12.649852 0 0 1 9.93631,-10.098836 12.307963,12.649852 0 0 1 12.71612,5.955675" />
              <path
                 style="fill:#ffffff;stroke:#ffffff;stroke-width:7.59514;stroke-linecap:butt;stroke-linejoin:miter;stroke-miterlimit:4;stroke-dasharray:none;stroke-opacity:1"
                 d="m 135.98368,203.46953 c -1.25682,30.783 0.25289,61.56597 13.05454,92.34897 0,0 13.40635,3.87722 13.05457,9.18656 -0.27642,4.17189 -7.14282,7.08994 -11.12054,5.802 -2.74287,-0.88809 -3.86803,-7.73603 -3.86803,-7.73603 0,0 -3.00428,19.26069 -10.63705,20.7906 -2.69104,0.53939 -5.5558,-2.67271 -6.28554,-5.3185 -1.58551,-5.74857 5.80205,-16.9226 5.80205,-16.9226 0,0 -6.16698,13.76043 -12.57108,14.98857 -4.67404,0.89638 -9.19303,-0.58328 -9.67005,-5.31854 -0.75699,-7.51452 14.50507,-15.95556 14.50507,-15.95556 0,0 -14.80982,8.68925 -20.79061,4.83502 -2.07235,-1.33548 -2.68113,-5.11626 -1.45049,-7.25254 3.99424,-6.93355 22.72459,-7.73603 22.72459,-7.73603 -12.68167,-22.01358 -10.76238,-52.78775 -11.12055,-82.19544 v 0"
                 id="path4326-5-20"
                 inkscape:connector-curvature="0"
                 sodipodi:nodetypes="ccsscsscsscssccc" />
              <path
                 sodipodi:nodetypes="ccccccsccccccccc"
                 inkscape:connector-curvature="0"
                 id="path4328-9-0"
                 d="m 154.18635,56.085745 c 8.9405,-2.435447 18.41663,-3.049802 30.47174,5.104467 -1.24993,-5.117975 0.29365,-10.235923 -7.34317,-15.353898 15.6391,1.260137 22.25737,10.84721 30.04024,19.359264 L 200.67955,49.84168 c 8.45131,3.234311 15.42638,9.052075 21.36194,16.689003 3.03912,-0.303913 -15.28538,-33.456885 -48.7319,-35.380702 -23.2404,-1.336769 -35.32575,29.102272 -32.0429,30.040231 l -15.3539,57.410208 10.0134,-22.029511 -9.34584,51.402171 9.34584,-19.35927 2.00266,20.02681 3.33784,-10.0134 8.0107,10.0134 c 7.95847,-30.19879 18.22947,-59.924213 4.90896,-92.554875 z"
                 style="fill:#1a1a1a;stroke:#ffffff;stroke-width:7.59514;stroke-linecap:butt;stroke-linejoin:miter;stroke-miterlimit:4;stroke-dasharray:none;stroke-opacity:1" />
              <path
                 sodipodi:nodetypes="cccccccc"
                 inkscape:connector-curvature="0"
                 id="path4330-2-3"
                 d="m 163.84139,76.793569 8.9687,23.601821 c 5.64536,-1.352343 12.00623,0.0679 16.52128,-5.664417 l -3.54029,-20.651599 7.96561,19.5305 c 5.542,0.556597 12.75913,0.917184 17.99641,-2.183158 l -7.43458,-22.451255 z"
                 style="fill:#ffffff;stroke:#ffffff;stroke-width:7.59514;stroke-linecap:butt;stroke-linejoin:miter;stroke-miterlimit:4;stroke-dasharray:none;stroke-opacity:1" />
              <path
                 inkscape:connector-curvature="0"
                 id="path4332-7-3"
                 d="m 167.61767,84.818205 -9.44073,-8.024636"
                 style="fill:#ffffff;stroke:#ffffff;stroke-width:7.59514;stroke-linecap:butt;stroke-linejoin:miter;stroke-miterlimit:4;stroke-dasharray:none;stroke-opacity:1" />
            </g>
          </g>
          <g
             style="stroke:#000000;stroke-opacity:1"
             id="g4334-3-9"
             transform="matrix(0.82151079,0,0,0.82151079,1718.6447,-108.33181)">
            <g
               style="stroke:#000000;stroke-opacity:1"
               inkscape:export-ydpi="90"
               inkscape:export-xdpi="90"
               inkscape:export-filename="/home/noel/www/Programador/Rascunhos/caneca.png"
               transform="matrix(-0.77305454,0,0,0.77305454,713.22421,820.84802)"
               id="g4336-6-0">
              <g
                 style="stroke:#000000;stroke-opacity:1"
                 id="g4338-4-4"
                 transform="translate(-453.33333,-5.3333333)">
                <path
                   sodipodi:nodetypes="csssssscc"
                   inkscape:connector-curvature="0"
                   id="path4340-7-3"
                   d="m 671.39659,225.0802 c 13.35122,-0.66756 16.80446,3.57212 23.32412,-1.21366 3.77127,-2.76828 1.92921,-10.3926 6.00804,-12.68364 7.41314,-4.16386 19.03606,-3.00492 25.3673,2.67023 3.90006,3.49588 2.89525,10.4437 1.9217,15.58993 -1.19307,6.30661 -3.73507,10.60526 -9.50086,13.42522 -8.21753,4.01906 -17.98645,0.29488 -27.13395,0.35752 -5.13714,0.0352 -14.64583,-0.78903 -14.64583,-0.78903 v 0"
                   style="fill:#ffffff;stroke:#000000;stroke-width:2.6434px;stroke-linecap:butt;stroke-linejoin:miter;stroke-opacity:1" />
                <path
                   sodipodi:nodetypes="ccccc"
                   inkscape:connector-curvature="0"
                   id="path4342-9-3"
                   d="m 700.58027,207.98724 c 1.37351,1.08626 5.26518,38.68661 1.65216,38.23498 l 14.39711,-0.70809 10.1488,-37.29088 z"
                   style="fill:#ffffff;stroke:#000000;stroke-width:2.6434px;stroke-linecap:butt;stroke-linejoin:miter;stroke-opacity:1" />
                <path
                   style="fill:#000000;stroke:#000000;stroke-width:2.6434px;stroke-linecap:butt;stroke-linejoin:miter;stroke-opacity:1"
                   d="m 702.29454,214.46342 c 1.37351,1.08627 3.55091,32.21043 -0.0621,31.7588 l 14.39711,-0.70809 8.24404,-30.62421 z"
                   id="path4344-7-4"
                   inkscape:connector-curvature="0"
                   sodipodi:nodetypes="ccccc" />
                <path
                   sodipodi:nodetypes="cssc"
                   inkscape:connector-curvature="0"
                   id="path4346-2-2"
                   d="m 700.10169,212.06276 c 0,0 7.66769,3.54988 8.12526,9.00512 0.33699,4.01745 -0.23869,5.41214 -4.25815,5.72461 -3.32775,0.2588 -7.42416,-3.76241 -7.42416,-3.76241"
                   style="fill:#ffffff;stroke:#000000;stroke-width:2.6434px;stroke-linecap:butt;stroke-linejoin:miter;stroke-opacity:1" />
                <path
                   sodipodi:nodetypes="cssc"
                   inkscape:connector-curvature="0"
                   id="path4348-2-4"
                   d="m 726.06251,234.99585 c 0,0 -10.60228,-3.26379 -13.27717,-0.90359 -1.33743,1.18009 -1.2687,3.82151 -0.33378,5.34047 1.33244,2.16478 7.00939,3.00404 7.00939,3.00404"
                   style="fill:#ffffff;stroke:#000000;stroke-width:2.6434px;stroke-linecap:round;stroke-linejoin:miter;stroke-opacity:1" />
                <path
                   sodipodi:nodetypes="cssc"
                   inkscape:connector-curvature="0"
                   id="path4350-1-5"
                   d="m 728.07501,224.11935 c 0,0 -9.10687,-4.91728 -12.61943,-1.04185 -1.88136,2.07574 -1.09427,6.48534 1.00135,8.34453 2.49683,2.21511 10.0134,0 10.0134,0"
                   style="fill:#ffffff;stroke:#000000;stroke-width:2.6434px;stroke-linecap:round;stroke-linejoin:miter;stroke-opacity:1" />
                <path
                   sodipodi:nodetypes="cssc"
                   inkscape:connector-curvature="0"
                   id="path4352-6-3"
                   d="m 727.91997,221.68512 c 0,0 -10.27583,3.42355 -14.13327,-0.2765 -1.92705,-1.84843 -1.91282,-6.14759 0,-8.01073 3.02968,-2.95099 12.68363,0.33378 12.68363,0.33378"
                   style="fill:#ffffff;stroke:#000000;stroke-width:2.6434px;stroke-linecap:round;stroke-linejoin:miter;stroke-opacity:1" />
                <path
                   sodipodi:nodetypes="sssssc"
                   inkscape:connector-curvature="0"
                   id="path4354-3-8"
                   d="m 697.43145,130.62038 c 0,0 36.11409,-4.90887 38.7185,8.01073 2.64063,13.0993 -31.86493,9.38639 -33.04422,22.69705 -1.02067,11.52003 24.76745,12.80097 24.69973,24.36595 -0.0497,8.49796 -16.15017,9.48403 -18.35792,17.69038 -0.21041,0.78218 0.66757,2.33645 0.66757,2.33645"
                   style="fill:none;stroke:#000000;stroke-width:2.6434px;stroke-linecap:butt;stroke-linejoin:miter;stroke-opacity:1" />
              </g>
              <path
                 sodipodi:nodetypes="cccc"
                 inkscape:connector-curvature="0"
                 id="path4356-0-1"
                 d="m 181.4329,280.82991 -1.69441,55.90304 -41.34597,0.2526 c -0.48246,-14.42502 1.16568,-37.23287 8.7117,-55.67212"
                 style="fill:#ffffff;stroke:#000000;stroke-width:2.70761px;stroke-linecap:butt;stroke-linejoin:miter;stroke-opacity:1" />
              <path
                 inkscape:connector-curvature="0"
                 id="path4358-2-1"
                 d="m 216.24507,279.37941 c 9.28122,14.23413 9.35586,40.13905 6.76903,58.09831 l -42.78779,-0.013 c -1.87492,-15.11572 -2.49348,-38.04906 1.69008,-55.18427"
                 style="fill:#ffffff;stroke:#000000;stroke-width:2.70761px;stroke-linecap:butt;stroke-linejoin:miter;stroke-opacity:1"
                 sodipodi:nodetypes="cccc" />
              <path
                 sodipodi:nodetypes="csccccc"
                 inkscape:connector-curvature="0"
                 id="path4360-1-3"
                 d="m 154.84026,144.96571 c 0,0 -19.97518,1.94853 -28.04314,7.25253 -17.50158,11.50581 -24.15942,48.93674 -20.7906,50.28427 l 34.81217,0.4835 c -9.9768,25.32853 -15.96838,51.2264 -16.92259,77.8439 33.01519,0.70923 66.3549,2.71658 98.151,-1.4505 18.73418,-69.87752 -8.33266,-96.3701 -32.87817,-126.67764"
                 style="fill:#000000;stroke:#000000;stroke-width:2.70761px;stroke-linecap:butt;stroke-linejoin:miter;stroke-opacity:1" />
              <path
                 sodipodi:nodetypes="sccscssss"
                 inkscape:connector-curvature="0"
                 id="path4362-5-1"
                 d="m 194.46405,42.576284 c 23.28676,21.39256 10.54943,97.838436 9.77313,97.579676 0,0 -15.4439,-8.48157 -23.24836,-13.67553 -3.36345,1.9237 -2.29513,8.50236 0,11.62419 2.26316,3.0783 10.94042,3.41887 10.94042,3.41887 0,0 -2.49372,10.53143 -6.83776,12.30798 -9.67915,3.9584 -30.08614,-8.8891 -30.08614,-8.8891 -5.79221,-1.71135 -10.30881,-84.788419 0.91839,-102.746505 7.53884,-12.058495 28.06753,-9.240491 38.54032,0.380419 z"
                 style="fill:#ffffff;stroke:#000000;stroke-width:2.70761px;stroke-linecap:butt;stroke-linejoin:miter;stroke-opacity:1" />
              <path
                 sodipodi:nodetypes="cssc"
                 inkscape:connector-curvature="0"
                 id="path4364-6-5"
                 d="m 191.92921,95.710528 c 0,0 25.4596,-5.613788 28.19107,5.157672 1.52403,6.01001 -1.58152,13.54173 -7.67778,14.67181 -9.88363,1.83211 -25.29971,-11.62417 -25.29971,-11.62417"
                 style="fill:#ffffff;stroke:#000000;stroke-width:2.70761px;stroke-linecap:butt;stroke-linejoin:miter;stroke-opacity:1" />
              <path
                 id="path4366-5-8"
                 style="fill:#ffffff;stroke-width:2.70761"
                 d="m 163.20321,99.917242 a 12.307963,12.649852 0 0 1 -13.95458,0.760918 12.307963,12.649852 0 0 1 -5.65226,-13.135077 12.307963,12.649852 0 0 1 9.93631,-10.098836 12.307963,12.649852 0 0 1 12.71612,5.955675" />
              <path
                 sodipodi:nodetypes="ccsscsscsscssccc"
                 inkscape:connector-curvature="0"
                 id="path4368-0-1"
                 d="m 135.98368,203.46953 c -1.25682,30.783 0.25289,61.56597 13.05454,92.34897 0,0 13.40635,3.87722 13.05457,9.18656 -0.27642,4.17189 -7.14282,7.08994 -11.12054,5.802 -2.74287,-0.88809 -3.86803,-7.73603 -3.86803,-7.73603 0,0 -3.00428,19.26069 -10.63705,20.7906 -2.69104,0.53939 -5.5558,-2.67271 -6.28554,-5.3185 -1.58551,-5.74857 5.80205,-16.9226 5.80205,-16.9226 0,0 -6.16698,13.76043 -12.57108,14.98857 -4.67404,0.89638 -9.19303,-0.58328 -9.67005,-5.31854 -0.75699,-7.51452 14.50507,-15.95556 14.50507,-15.95556 0,0 -14.80982,8.68925 -20.79061,4.83502 -2.07235,-1.33548 -2.68113,-5.11626 -1.45049,-7.25254 3.99424,-6.93355 22.72459,-7.73603 22.72459,-7.73603 -12.68167,-22.01358 -10.76238,-52.78775 -11.12055,-82.19544 v 0"
                 style="fill:#ffffff;stroke:#000000;stroke-width:2.70761px;stroke-linecap:butt;stroke-linejoin:miter;stroke-opacity:1" />
              <path
                 style="fill:#1a1a1a;stroke:#000000;stroke-width:2.6434px;stroke-linecap:butt;stroke-linejoin:miter;stroke-opacity:1"
                 d="m 154.18635,56.085745 c 8.9405,-2.435447 18.41663,-3.049802 30.47174,5.104467 -1.24993,-5.117975 0.29365,-10.235923 -7.34317,-15.353898 15.6391,1.260137 22.25737,10.84721 30.04024,19.359264 L 200.67955,49.84168 c 8.45131,3.234311 15.42638,9.052075 21.36194,16.689003 3.03912,-0.303913 -15.28538,-33.456885 -48.7319,-35.380702 -23.2404,-1.336769 -35.32575,29.102272 -32.0429,30.040231 l -15.3539,57.410208 10.0134,-22.029511 -9.34584,51.402171 9.34584,-19.35927 2.00266,20.02681 3.33784,-10.0134 8.0107,10.0134 c 7.95847,-30.19879 18.22947,-59.924213 4.90896,-92.554875 z"
                 id="path4370-0-3"
                 inkscape:connector-curvature="0"
                 sodipodi:nodetypes="ccccccsccccccccc" />
              <path
                 style="fill:#ffffff;stroke:#000000;stroke-width:2.6434px;stroke-linecap:butt;stroke-linejoin:miter;stroke-opacity:1"
                 d="m 163.84139,76.793569 8.9687,23.601821 c 5.64536,-1.352343 12.00623,0.0679 16.52128,-5.664417 l -3.54029,-20.651599 7.96561,19.5305 c 5.542,0.556597 12.75913,0.917184 17.99641,-2.183158 l -7.43458,-22.451255 z"
                 id="path4372-3-39"
                 inkscape:connector-curvature="0"
                 sodipodi:nodetypes="cccccccc" />
              <path
                 style="fill:#ffffff;stroke:#000000;stroke-width:2.6434px;stroke-linecap:butt;stroke-linejoin:miter;stroke-opacity:1"
                 d="m 167.61767,84.818205 -9.44073,-8.024636"
                 id="path4374-4-7"
                 inkscape:connector-curvature="0" />
            </g>
          </g>
        </g>
        <g
           aria-label="no test no fear"
           transform="rotate(-9.7336101)"
           id="text4376-6-5"
           style="font-size:12.8px;line-height:0%;font-family:'BadaBoom BB';-inkscape-font-specification:'BadaBoom BB';letter-spacing:0px;word-spacing:0px;fill:#ffffff;stroke-width:1.06667"
           inkscape:transform-center-x="-11.833248"
           inkscape:transform-center-y="10.012713">
          <path
             d="m -2452.0379,899.27343 3.1943,-0.64625 q -0.037,0.57239 -0.037,1.62484 0,2.51111 0.1662,4.41291 0.092,1.08938 0.2769,1.75409 l 1.2556,-7.20099 3.1758,-0.59085 q -1.9203,7.40409 -2.5111,12.83253 l -2.9173,0.81242 q -0.019,-0.0369 -0.2401,-0.64625 l -0.9601,-2.73268 q -0.24,-0.6647 -0.277,-0.84934 -0.3877,2.17876 -0.6093,4.22827 l -2.9542,0.88627 z"
             style="font-size:18.9072px;line-height:1"
             id="path1650" />
          <path
             d="m -2438.5776,897.81477 q 1.9572,0 2.7696,2.17875 0.4247,1.12631 0.4247,2.47419 0,1.29248 -0.3877,2.80654 -0.6832,2.58497 -2.3634,4.76372 -2.0496,2.65883 -4.3391,2.65883 -1.9756,0 -2.8065,-2.17876 -0.4062,-1.07092 -0.4062,-2.40033 0,-1.31095 0.4062,-2.84346 0.6831,-2.60344 2.3449,-4.7822 2.0495,-2.67728 4.3575,-2.67728 z m -0.6647,4.57908 q -1.0155,0 -2.068,1.66177 -0.8493,1.31095 -1.1817,2.5665 -0.1661,0.66471 -0.1661,1.20017 0,0.75702 0.3692,1.23709 0.4247,0.53546 1.1817,0.53546 1.034,0 1.8649,-1.08938 0.6647,-0.86781 0.9601,-2.04951 0.3509,-1.38481 0.1478,-2.73268 -0.2216,-1.32942 -1.1079,-1.32942 z"
             style="font-size:18.9072px;line-height:1"
             id="path1652" />
          <path
             d="m -2424.0279,898.44254 -0.1108,3.43432 q -1.2925,0.0739 -2.4557,0.18464 -1.2186,5.11454 -1.6433,9.39821 l -3.1204,0.81242 1.6987,-9.82289 q -0.4986,0.0739 -0.9971,0.16618 l -0.9786,0.18464 -0.2216,-3.45278 z"
             style="font-size:18.9072px;line-height:1"
             id="path1654" />
          <path
             d="m -2421.683,901.96918 q -0.1477,0.53546 -0.2585,1.05245 l -0.2031,1.01552 2.9543,-0.62777 -0.1662,2.54804 q -2.1049,0.36928 -3.3051,0.64624 -0.074,0.36928 -0.1292,0.73856 l -0.1293,0.7201 3.4344,-0.49853 -0.2401,3.43432 q -2.6588,0.22156 -6.7394,1.27402 l 2.1973,-13.23874 6.1485,-0.88627 -0.24,3.41585 q -1.8095,0.16618 -3.3236,0.40621 z"
             style="font-size:18.9072px;line-height:1"
             id="path1656" />
          <path
             d="m -2410.6968,902.48617 q -0.5909,0.22157 -1.4033,0.53546 l -1.3848,0.53546 q 0,-0.86781 -0.4801,-0.86781 -0.6832,0 -1.3663,0.77549 -0.4801,0.57238 -0.4062,1.10784 0.055,0.35082 0.7016,0.35082 0.3508,0 0.9232,-0.11079 0.794,-0.16617 1.4033,-0.16617 1.551,0 1.8095,1.07091 0.074,0.33236 0.074,0.70164 0,1.1817 -0.8863,2.54804 -1.1447,1.79101 -3.2127,3.00964 -1.0894,0.64624 -2.1418,0.64624 -0.9602,0 -1.8834,-0.53545 0.4616,-1.10785 1.4771,-3.26814 0.5909,0.40621 1.2556,0.40621 0.2954,0 0.6093,-0.0923 0.5724,-0.14772 1.0894,-0.42468 0.7386,-0.40621 0.7386,-0.83088 0,-0.4616 -0.7571,-0.4616 -0.517,0 -1.514,0.22157 -0.9786,0.2031 -1.4956,0.2031 -0.6832,0 -1.0525,-0.2585 -0.7201,-0.48006 -0.5908,-1.49558 0.24,-2.04952 2.6403,-4.74527 2.4558,-2.76961 4.2283,-2.89886 1.7172,-0.11078 1.7172,2.58497 0,0.64624 -0.092,1.45866 z"
             style="font-size:18.9072px;line-height:1"
             id="path1658" />
          <path
             d="m -2402.2588,898.44254 -0.1108,3.43432 q -1.2924,0.0739 -2.4557,0.18464 -1.2186,5.11454 -1.6433,9.39821 l -3.1204,0.81242 1.6987,-9.82289 q -0.4985,0.0739 -0.9971,0.16618 l -0.9786,0.18464 -0.2215,-3.45278 z"
             style="font-size:18.9072px;line-height:1"
             id="path1660" />
          <path
             d="m -2452.0379,918.18063 3.1943,-0.64625 q -0.037,0.57239 -0.037,1.62484 0,2.51111 0.1662,4.41291 0.092,1.08938 0.2769,1.75409 l 1.2556,-7.20099 3.1758,-0.59085 q -1.9203,7.40409 -2.5111,12.83253 l -2.9173,0.81242 q -0.019,-0.0369 -0.2401,-0.64625 l -0.9601,-2.73268 q -0.24,-0.6647 -0.277,-0.84934 -0.3877,2.17876 -0.6093,4.22827 l -2.9542,0.88627 z"
             style="font-size:18.9072px;line-height:1"
             id="path1662" />
          <path
             d="m -2438.5776,916.72197 q 1.9572,0 2.7696,2.17875 0.4247,1.12631 0.4247,2.47419 0,1.29248 -0.3877,2.80654 -0.6832,2.58497 -2.3634,4.76372 -2.0496,2.65883 -4.3391,2.65883 -1.9756,0 -2.8065,-2.17876 -0.4062,-1.07092 -0.4062,-2.40033 0,-1.31095 0.4062,-2.84346 0.6831,-2.60344 2.3449,-4.7822 2.0495,-2.67728 4.3575,-2.67728 z m -0.6647,4.57908 q -1.0155,0 -2.068,1.66177 -0.8493,1.31095 -1.1817,2.5665 -0.1661,0.66471 -0.1661,1.20017 0,0.75702 0.3692,1.23709 0.4247,0.53546 1.1817,0.53546 1.034,0 1.8649,-1.08938 0.6647,-0.86781 0.9601,-2.04951 0.3509,-1.38481 0.1478,-2.73268 -0.2216,-1.32942 -1.1079,-1.32942 z"
             style="font-size:18.9072px;line-height:1"
             id="path1664" />
          <path
             d="m -2428.4039,920.87638 q -0.1292,0.51699 -0.2215,1.01552 l -0.2216,0.99706 3.2312,-0.68317 -0.1662,2.58497 q -1.9018,0.29543 -3.582,0.68317 -0.4431,2.47419 -0.7016,4.89298 l -3.1574,0.81242 2.1603,-13.23874 6.3147,-0.88627 -0.2216,3.41585 q -1.8464,0.16618 -3.4343,0.40621 z"
             style="font-size:18.9072px;line-height:1"
             id="path1666" />
          <path
             d="m -2421.5906,920.87638 q -0.1478,0.53546 -0.2585,1.05245 l -0.2031,1.01552 2.9542,-0.62777 -0.1662,2.54804 q -2.1049,0.36928 -3.305,0.64624 -0.074,0.36928 -0.1293,0.73856 l -0.1292,0.7201 3.4343,-0.49853 -0.2401,3.43432 q -2.6588,0.22156 -6.7393,1.27402 l 2.1972,-13.23874 6.1485,-0.88627 -0.24,3.41585 q -1.8095,0.16618 -3.3235,0.40621 z"
             style="font-size:18.9072px;line-height:1"
             id="path1668" />
          <path
             d="m -2420.889,931.40089 q 2.7142,-6.92402 4.3944,-13.34951 l 5.6131,-0.94167 q -0.9601,5.59461 -0.8678,13.23873 l -3.9144,0.90474 0.277,-2.30801 -1.2371,0.24004 -0.3878,1.62483 z m 5.7977,-4.9299 0.8494,-6.97942 h -0.019 l -1.7356,7.1456 z"
             style="font-size:18.9072px;line-height:1"
             id="path1670" />
          <path
             d="m -2409.7552,918.10677 q 2.8989,-0.86781 4.7453,-0.86781 2.4926,0 2.4742,1.73562 -0.019,2.49265 -3.1389,5.00376 0.2585,0.70164 2.1418,4.41291 -0.9601,0.88628 -2.8988,2.60344 l -1.9757,-5.09609 h -0.019 v 0 q -0.4431,2.4188 -0.6647,4.46831 l -2.9173,0.81242 q 0.037,-0.40621 0.4062,-2.45572 z m 2.3265,2.91732 q -0.1662,0.62778 -0.2954,1.25556 l -0.2585,1.25555 q 0.6462,-0.33235 1.274,-0.86781 0.7201,-0.62777 0.9601,-1.20016 0.092,-0.16618 0.092,-0.31389 0,-0.40621 -0.5354,-0.40621 -0.4247,0 -1.2371,0.27696 z"
             style="font-size:18.9072px;line-height:1"
             id="path1672" />
        </g>
      </g>
      <g
         transform="matrix(1.4514989,0,0,1.4514989,2747.2159,-958.38896)"
         id="g4410-2-6"
         style="enable-background:new">
        <g
           transform="matrix(-1.2068296,0,0,1.2068296,404.27412,468.11726)"
           id="g4412-5-7">
          <g
             style="stroke:#ffffff;stroke-width:5.50449;stroke-linecap:round;stroke-linejoin:round;stroke-miterlimit:4;stroke-dasharray:none;stroke-opacity:1"
             id="g4415-8-2"
             transform="matrix(0.82151079,0,0,0.82151079,1718.6447,-108.33181)">
            <g
               style="stroke:#ffffff;stroke-width:7.12045;stroke-linecap:round;stroke-linejoin:round;stroke-miterlimit:4;stroke-dasharray:none;stroke-opacity:1"
               inkscape:export-ydpi="90"
               inkscape:export-xdpi="90"
               inkscape:export-filename="/home/noel/www/Programador/Rascunhos/caneca.png"
               transform="matrix(-0.77305454,0,0,0.77305454,713.22421,820.84802)"
               id="g4417-9-1">
              <g
                 style="stroke:#ffffff;stroke-width:7.12045;stroke-linecap:round;stroke-linejoin:round;stroke-miterlimit:4;stroke-dasharray:none;stroke-opacity:1"
                 id="g4419-5-01"
                 transform="translate(-453.33333,-5.3333333)">
                <path
                   sodipodi:nodetypes="csssssscc"
                   inkscape:connector-curvature="0"
                   id="path4421-0-3"
                   d="m 671.39659,225.0802 c 13.35122,-0.66756 16.80446,3.57212 23.32412,-1.21366 3.77127,-2.76828 1.92921,-10.3926 6.00804,-12.68364 7.41314,-4.16386 19.03606,-3.00492 25.3673,2.67023 3.90006,3.49588 2.89525,10.4437 1.9217,15.58993 -1.19307,6.30661 -3.73507,10.60526 -9.50086,13.42522 -8.21753,4.01906 -17.98645,0.29488 -27.13395,0.35752 -5.13714,0.0352 -14.64583,-0.78903 -14.64583,-0.78903 v 0"
                   style="fill:#ffffff;stroke:#ffffff;stroke-width:7.59514;stroke-linecap:round;stroke-linejoin:round;stroke-miterlimit:4;stroke-dasharray:none;stroke-opacity:1" />
                <path
                   sodipodi:nodetypes="ccccc"
                   inkscape:connector-curvature="0"
                   id="path4423-6-7"
                   d="m 700.58027,207.98724 c 1.37351,1.08626 5.26518,38.68661 1.65216,38.23498 l 14.39711,-0.70809 10.1488,-37.29088 z"
                   style="fill:#ffffff;stroke:#ffffff;stroke-width:7.59514;stroke-linecap:round;stroke-linejoin:round;stroke-miterlimit:4;stroke-dasharray:none;stroke-opacity:1" />
                <path
                   style="fill:#000000;stroke:#ffffff;stroke-width:7.59514;stroke-linecap:round;stroke-linejoin:round;stroke-miterlimit:4;stroke-dasharray:none;stroke-opacity:1"
                   d="m 702.29454,214.46342 c 1.37351,1.08627 3.55091,32.21043 -0.0621,31.7588 l 14.39711,-0.70809 8.24404,-30.62421 z"
                   id="path4425-0-7"
                   inkscape:connector-curvature="0"
                   sodipodi:nodetypes="ccccc" />
                <path
                   sodipodi:nodetypes="cssc"
                   inkscape:connector-curvature="0"
                   id="path4427-8-6"
                   d="m 700.10169,212.06276 c 0,0 7.66769,3.54988 8.12526,9.00512 0.33699,4.01745 -0.23869,5.41214 -4.25815,5.72461 -3.32775,0.2588 -7.42416,-3.76241 -7.42416,-3.76241"
                   style="fill:#ffffff;stroke:#ffffff;stroke-width:7.59514;stroke-linecap:round;stroke-linejoin:round;stroke-miterlimit:4;stroke-dasharray:none;stroke-opacity:1" />
                <path
                   sodipodi:nodetypes="cssc"
                   inkscape:connector-curvature="0"
                   id="path4429-3-3"
                   d="m 726.06251,234.99585 c 0,0 -10.60228,-3.26379 -13.27717,-0.90359 -1.33743,1.18009 -1.2687,3.82151 -0.33378,5.34047 1.33244,2.16478 7.00939,3.00404 7.00939,3.00404"
                   style="fill:#ffffff;stroke:#ffffff;stroke-width:7.59514;stroke-linecap:round;stroke-linejoin:round;stroke-miterlimit:4;stroke-dasharray:none;stroke-opacity:1" />
                <path
                   sodipodi:nodetypes="cssc"
                   inkscape:connector-curvature="0"
                   id="path4431-7-9"
                   d="m 728.07501,224.11935 c 0,0 -9.10687,-4.91728 -12.61943,-1.04185 -1.88136,2.07574 -1.09427,6.48534 1.00135,8.34453 2.49683,2.21511 10.0134,0 10.0134,0"
                   style="fill:#ffffff;stroke:#ffffff;stroke-width:7.59514;stroke-linecap:round;stroke-linejoin:round;stroke-miterlimit:4;stroke-dasharray:none;stroke-opacity:1" />
                <path
                   sodipodi:nodetypes="cssc"
                   inkscape:connector-curvature="0"
                   id="path4433-8-1"
                   d="m 727.91997,221.68512 c 0,0 -10.27583,3.42355 -14.13327,-0.2765 -1.92705,-1.84843 -1.91282,-6.14759 0,-8.01073 3.02968,-2.95099 12.68363,0.33378 12.68363,0.33378"
                   style="fill:#ffffff;stroke:#ffffff;stroke-width:7.59514;stroke-linecap:round;stroke-linejoin:round;stroke-miterlimit:4;stroke-dasharray:none;stroke-opacity:1" />
                <path
                   sodipodi:nodetypes="sssssc"
                   inkscape:connector-curvature="0"
                   id="path4435-2-0"
                   d="m 697.43145,130.62038 c 0,0 36.11409,-4.90887 38.7185,8.01073 2.64063,13.0993 -31.86493,9.38639 -33.04422,22.69705 -1.02067,11.52003 24.76745,12.80097 24.69973,24.36595 -0.0497,8.49796 -16.15017,9.48403 -18.35792,17.69038 -0.21041,0.78218 0.66757,2.33645 0.66757,2.33645"
                   style="fill:none;stroke:#ffffff;stroke-width:7.59514;stroke-linecap:round;stroke-linejoin:round;stroke-miterlimit:4;stroke-dasharray:none;stroke-opacity:1" />
              </g>
              <path
                 sodipodi:nodetypes="cccc"
                 inkscape:connector-curvature="0"
                 id="path4437-1-4"
                 d="m 181.4329,280.82991 -1.69441,55.90304 -41.34597,0.2526 c -0.48246,-14.42502 1.16568,-37.23287 8.7117,-55.67212"
                 style="fill:#ffffff;stroke:#ffffff;stroke-width:7.59514;stroke-linecap:round;stroke-linejoin:round;stroke-miterlimit:4;stroke-dasharray:none;stroke-opacity:1" />
              <path
                 inkscape:connector-curvature="0"
                 id="path4439-0-1"
                 d="m 216.24507,279.37941 c 9.28122,14.23413 9.35586,40.13905 6.76903,58.09831 l -42.78779,-0.013 c -1.87492,-15.11572 -2.49348,-38.04906 1.69008,-55.18427"
                 style="fill:#ffffff;stroke:#ffffff;stroke-width:7.59514;stroke-linecap:round;stroke-linejoin:round;stroke-miterlimit:4;stroke-dasharray:none;stroke-opacity:1"
                 sodipodi:nodetypes="cccc" />
              <path
                 sodipodi:nodetypes="csccccc"
                 inkscape:connector-curvature="0"
                 id="path4441-5-18"
                 d="m 154.84026,144.96571 c 0,0 -19.97518,1.94853 -28.04314,7.25253 -17.50158,11.50581 -24.15942,48.93674 -20.7906,50.28427 l 34.81217,0.4835 c -9.9768,25.32853 -15.96838,51.2264 -16.92259,77.8439 33.01519,0.70923 66.3549,2.71658 98.151,-1.4505 18.73418,-69.87752 -8.33266,-96.3701 -32.87817,-126.67764"
                 style="fill:#000000;stroke:#ffffff;stroke-width:7.59514;stroke-linecap:round;stroke-linejoin:round;stroke-miterlimit:4;stroke-dasharray:none;stroke-opacity:1" />
              <path
                 sodipodi:nodetypes="sccscssss"
                 inkscape:connector-curvature="0"
                 id="path4443-8-6"
                 d="m 194.46405,42.576284 c 23.28676,21.39256 10.54943,97.838436 9.77313,97.579676 0,0 -16.2837,-9.32137 -23.24836,-13.67553 -3.36345,1.9237 -2.29513,8.50236 0,11.62419 2.26316,3.0783 10.94042,3.41887 10.94042,3.41887 0,0 -2.49372,10.53143 -6.83776,12.30798 -9.67915,3.9584 -30.08614,-8.8891 -30.08614,-8.8891 -5.79221,-1.71135 -10.30881,-84.788419 0.91839,-102.746505 7.53884,-12.058495 28.06753,-9.240491 38.54032,0.380419 z"
                 style="fill:#ffffff;stroke:#ffffff;stroke-width:7.59514;stroke-linecap:round;stroke-linejoin:round;stroke-miterlimit:4;stroke-dasharray:none;stroke-opacity:1" />
              <path
                 sodipodi:nodetypes="cssc"
                 inkscape:connector-curvature="0"
                 id="path4445-5-4"
                 d="m 191.92921,95.710528 c 0,0 25.4596,-5.613788 28.19107,5.157672 1.52403,6.01001 -1.58152,13.54173 -7.67778,14.67181 -9.88363,1.83211 -25.29971,-11.62417 -25.29971,-11.62417"
                 style="fill:#ffffff;stroke:#ffffff;stroke-width:7.59514;stroke-linecap:round;stroke-linejoin:round;stroke-miterlimit:4;stroke-dasharray:none;stroke-opacity:1" />
              <path
                 id="path4447-5-3"
                 style="fill:#ffffff;stroke-width:7.59514"
                 d="m 163.20321,99.917242 a 12.307963,12.649852 0 0 1 -13.95458,0.760918 12.307963,12.649852 0 0 1 -5.65226,-13.135077 12.307963,12.649852 0 0 1 9.93631,-10.098836 12.307963,12.649852 0 0 1 12.71612,5.955675" />
              <path
                 sodipodi:nodetypes="ccsscsscsscssccc"
                 inkscape:connector-curvature="0"
                 id="path4449-0-4"
                 d="m 135.98368,203.46953 c -1.25682,30.783 0.25289,61.56597 13.05454,92.34897 0,0 13.40635,3.87722 13.05457,9.18656 -0.27642,4.17189 -7.14282,7.08994 -11.12054,5.802 -2.74287,-0.88809 -3.86803,-7.73603 -3.86803,-7.73603 0,0 -3.00428,19.26069 -10.63705,20.7906 -2.69104,0.53939 -5.5558,-2.67271 -6.28554,-5.3185 -1.58551,-5.74857 5.80205,-16.9226 5.80205,-16.9226 0,0 -6.16698,13.76043 -12.57108,14.98857 -4.67404,0.89638 -9.19303,-0.58328 -9.67005,-5.31854 -0.75699,-7.51452 14.50507,-15.95556 14.50507,-15.95556 0,0 -14.80982,8.68925 -20.79061,4.83502 -2.07235,-1.33548 -2.68113,-5.11626 -1.45049,-7.25254 3.99424,-6.93355 22.72459,-7.73603 22.72459,-7.73603 -12.68167,-22.01358 -10.76238,-52.78775 -11.12055,-82.19544 v 0"
                 style="fill:#ffffff;stroke:#ffffff;stroke-width:7.59514;stroke-linecap:round;stroke-linejoin:round;stroke-miterlimit:4;stroke-dasharray:none;stroke-opacity:1" />
              <path
                 style="fill:#1a1a1a;stroke:#ffffff;stroke-width:7.59514;stroke-linecap:round;stroke-linejoin:round;stroke-miterlimit:4;stroke-dasharray:none;stroke-opacity:1"
                 d="m 154.18635,56.085745 c 8.9405,-2.435447 18.41663,-3.049802 30.47174,5.104467 -1.24993,-5.117975 0.29365,-10.235923 -7.34317,-15.353898 15.6391,1.260137 22.25737,10.84721 30.04024,19.359264 L 200.67955,49.84168 c 8.45131,3.234311 15.42638,9.052075 21.36194,16.689003 3.03912,-0.303913 -15.28538,-33.456885 -48.7319,-35.380702 -23.2404,-1.336769 -35.32575,29.102272 -32.0429,30.040231 l -15.3539,57.410208 10.0134,-22.029511 -9.34584,51.402171 9.34584,-19.35927 2.00266,20.02681 3.33784,-10.0134 8.0107,10.0134 c 7.95847,-30.19879 18.22947,-59.924213 4.90896,-92.554875 z"
                 id="path4451-7-7"
                 inkscape:connector-curvature="0"
                 sodipodi:nodetypes="ccccccsccccccccc" />
              <path
                 style="fill:#ffffff;stroke:#ffffff;stroke-width:7.59514;stroke-linecap:round;stroke-linejoin:round;stroke-miterlimit:4;stroke-dasharray:none;stroke-opacity:1"
                 d="m 163.84139,76.793569 8.9687,23.601821 c 5.64536,-1.352343 12.00623,0.0679 16.52128,-5.664417 l -3.54029,-20.651599 7.96561,19.5305 c 5.542,0.556597 12.75913,0.917184 17.99641,-2.183158 l -7.43458,-22.451255 z"
                 id="path4453-3-7"
                 inkscape:connector-curvature="0"
                 sodipodi:nodetypes="cccccccc" />
              <path
                 style="fill:#ffffff;stroke:#ffffff;stroke-width:7.59514;stroke-linecap:round;stroke-linejoin:round;stroke-miterlimit:4;stroke-dasharray:none;stroke-opacity:1"
                 d="m 167.61767,84.818205 -9.44073,-8.024636"
                 id="path4455-8-0"
                 inkscape:connector-curvature="0" />
            </g>
          </g>
          <g
             transform="matrix(0.82151079,0,0,0.82151079,1718.6447,-108.33181)"
             id="g4457-2-7"
             style="stroke:#000000;stroke-opacity:1">
            <g
               id="g4459-3-4"
               transform="matrix(-0.77305454,0,0,0.77305454,713.22421,820.84802)"
               inkscape:export-filename="/home/noel/www/Programador/Rascunhos/caneca.png"
               inkscape:export-xdpi="90"
               inkscape:export-ydpi="90"
               style="stroke:#000000;stroke-opacity:1">
              <g
                 transform="translate(-453.33333,-5.3333333)"
                 id="g4461-0-5"
                 style="stroke:#000000;stroke-opacity:1">
                <path
                   style="fill:#ffffff;stroke:#000000;stroke-width:2.6434px;stroke-linecap:butt;stroke-linejoin:miter;stroke-opacity:1"
                   d="m 671.39659,225.0802 c 13.35122,-0.66756 16.80446,3.57212 23.32412,-1.21366 3.77127,-2.76828 1.92921,-10.3926 6.00804,-12.68364 7.41314,-4.16386 19.03606,-3.00492 25.3673,2.67023 3.90006,3.49588 2.89525,10.4437 1.9217,15.58993 -1.19307,6.30661 -3.73507,10.60526 -9.50086,13.42522 -8.21753,4.01906 -17.98645,0.29488 -27.13395,0.35752 -5.13714,0.0352 -14.64583,-0.78903 -14.64583,-0.78903 v 0"
                   id="path4463-7-3"
                   inkscape:connector-curvature="0"
                   sodipodi:nodetypes="csssssscc" />
                <path
                   style="fill:#ffffff;stroke:#000000;stroke-width:2.6434px;stroke-linecap:butt;stroke-linejoin:miter;stroke-opacity:1"
                   d="m 700.58027,207.98724 c 1.37351,1.08626 5.26518,38.68661 1.65216,38.23498 l 14.39711,-0.70809 10.1488,-37.29088 z"
                   id="path4465-7-0"
                   inkscape:connector-curvature="0"
                   sodipodi:nodetypes="ccccc" />
                <path
                   sodipodi:nodetypes="ccccc"
                   inkscape:connector-curvature="0"
                   id="path4467-7-7"
                   d="m 702.29454,214.46342 c 1.37351,1.08627 3.55091,32.21043 -0.0621,31.7588 l 14.39711,-0.70809 8.24404,-30.62421 z"
                   style="fill:#000000;stroke:#000000;stroke-width:2.6434px;stroke-linecap:butt;stroke-linejoin:miter;stroke-opacity:1" />
                <path
                   style="fill:#ffffff;stroke:#000000;stroke-width:2.6434px;stroke-linecap:butt;stroke-linejoin:miter;stroke-opacity:1"
                   d="m 700.10169,212.06276 c 0,0 7.66769,3.54988 8.12526,9.00512 0.33699,4.01745 -0.23869,5.41214 -4.25815,5.72461 -3.32775,0.2588 -7.42416,-3.76241 -7.42416,-3.76241"
                   id="path4469-6-2"
                   inkscape:connector-curvature="0"
                   sodipodi:nodetypes="cssc" />
                <path
                   style="fill:#ffffff;stroke:#000000;stroke-width:2.6434px;stroke-linecap:round;stroke-linejoin:miter;stroke-opacity:1"
                   d="m 726.06251,234.99585 c 0,0 -10.60228,-3.26379 -13.27717,-0.90359 -1.33743,1.18009 -1.2687,3.82151 -0.33378,5.34047 1.33244,2.16478 7.00939,3.00404 7.00939,3.00404"
                   id="path4471-9-9"
                   inkscape:connector-curvature="0"
                   sodipodi:nodetypes="cssc" />
                <path
                   style="fill:#ffffff;stroke:#000000;stroke-width:2.6434px;stroke-linecap:round;stroke-linejoin:miter;stroke-opacity:1"
                   d="m 728.07501,224.11935 c 0,0 -9.10687,-4.91728 -12.61943,-1.04185 -1.88136,2.07574 -1.09427,6.48534 1.00135,8.34453 2.49683,2.21511 10.0134,0 10.0134,0"
                   id="path4473-1-9"
                   inkscape:connector-curvature="0"
                   sodipodi:nodetypes="cssc" />
                <path
                   style="fill:#ffffff;stroke:#000000;stroke-width:2.6434px;stroke-linecap:round;stroke-linejoin:miter;stroke-opacity:1"
                   d="m 727.91997,221.68512 c 0,0 -10.27583,3.42355 -14.13327,-0.2765 -1.92705,-1.84843 -1.91282,-6.14759 0,-8.01073 3.02968,-2.95099 12.68363,0.33378 12.68363,0.33378"
                   id="path4475-1-3"
                   inkscape:connector-curvature="0"
                   sodipodi:nodetypes="cssc" />
                <path
                   style="fill:none;stroke:#000000;stroke-width:2.6434px;stroke-linecap:butt;stroke-linejoin:miter;stroke-opacity:1"
                   d="m 697.43145,130.62038 c 0,0 36.11409,-4.90887 38.7185,8.01073 2.64063,13.0993 -31.86493,9.38639 -33.04422,22.69705 -1.02067,11.52003 24.76745,12.80097 24.69973,24.36595 -0.0497,8.49796 -16.15017,9.48403 -18.35792,17.69038 -0.21041,0.78218 0.66757,2.33645 0.66757,2.33645"
                   id="path4477-9-0"
                   inkscape:connector-curvature="0"
                   sodipodi:nodetypes="sssssc" />
              </g>
              <path
                 style="fill:#ffffff;stroke:#000000;stroke-width:2.70761px;stroke-linecap:butt;stroke-linejoin:miter;stroke-opacity:1"
                 d="m 181.4329,280.82991 -1.69441,55.90304 -41.34597,0.2526 c -0.48246,-14.42502 1.16568,-37.23287 8.7117,-55.67212"
                 id="path4479-0-2"
                 inkscape:connector-curvature="0"
                 sodipodi:nodetypes="cccc" />
              <path
                 sodipodi:nodetypes="cccc"
                 style="fill:#ffffff;stroke:#000000;stroke-width:2.70761px;stroke-linecap:butt;stroke-linejoin:miter;stroke-opacity:1"
                 d="m 216.24507,279.37941 c 9.28122,14.23413 9.35586,40.13905 6.76903,58.09831 l -42.78779,-0.013 c -1.87492,-15.11572 -2.49348,-38.04906 1.69008,-55.18427"
                 id="path4481-8-7"
                 inkscape:connector-curvature="0" />
              <path
                 style="fill:#000000;stroke:#000000;stroke-width:2.70761px;stroke-linecap:butt;stroke-linejoin:miter;stroke-opacity:1"
                 d="m 154.84026,144.96571 c 0,0 -19.97518,1.94853 -28.04314,7.25253 -17.50158,11.50581 -24.15942,48.93674 -20.7906,50.28427 l 34.81217,0.4835 c -9.9768,25.32853 -15.96838,51.2264 -16.92259,77.8439 33.01519,0.70923 66.3549,2.71658 98.151,-1.4505 18.73418,-69.87752 -8.33266,-96.3701 -32.87817,-126.67764"
                 id="path4483-9-9"
                 inkscape:connector-curvature="0"
                 sodipodi:nodetypes="csccccc" />
              <path
                 style="fill:#ffffff;stroke:#000000;stroke-width:2.70761px;stroke-linecap:butt;stroke-linejoin:miter;stroke-opacity:1"
                 d="m 194.46405,42.576284 c 23.28676,21.39256 10.54943,97.838436 9.77313,97.579676 0,0 -15.4439,-8.48157 -23.24836,-13.67553 -3.36345,1.9237 -2.29513,8.50236 0,11.62419 2.26316,3.0783 10.94042,3.41887 10.94042,3.41887 0,0 -2.49372,10.53143 -6.83776,12.30798 -9.67915,3.9584 -30.08614,-8.8891 -30.08614,-8.8891 -5.79221,-1.71135 -10.30881,-84.788419 0.91839,-102.746505 7.53884,-12.058495 28.06753,-9.240491 38.54032,0.380419 z"
                 id="path4485-8-9"
                 inkscape:connector-curvature="0"
                 sodipodi:nodetypes="sccscssss" />
              <path
                 style="fill:#ffffff;stroke:#000000;stroke-width:2.70761px;stroke-linecap:butt;stroke-linejoin:miter;stroke-opacity:1"
                 d="m 191.92921,95.710528 c 0,0 25.4596,-5.613788 28.19107,5.157672 1.52403,6.01001 -1.58152,13.54173 -7.67778,14.67181 -9.88363,1.83211 -25.29971,-11.62417 -25.29971,-11.62417"
                 id="path4487-8-5"
                 inkscape:connector-curvature="0"
                 sodipodi:nodetypes="cssc" />
              <path
                 id="path4489-0-2"
                 style="fill:#ffffff;stroke-width:2.70761"
                 d="m 163.20321,99.917242 a 12.307963,12.649852 0 0 1 -13.95458,0.760918 12.307963,12.649852 0 0 1 -5.65226,-13.135077 12.307963,12.649852 0 0 1 9.93631,-10.098836 12.307963,12.649852 0 0 1 12.71612,5.955675" />
              <path
                 style="fill:#ffffff;stroke:#000000;stroke-width:2.70761px;stroke-linecap:butt;stroke-linejoin:miter;stroke-opacity:1"
                 d="m 135.98368,203.46953 c -1.25682,30.783 0.25289,61.56597 13.05454,92.34897 0,0 13.40635,3.87722 13.05457,9.18656 -0.27642,4.17189 -7.14282,7.08994 -11.12054,5.802 -2.74287,-0.88809 -3.86803,-7.73603 -3.86803,-7.73603 0,0 -3.00428,19.26069 -10.63705,20.7906 -2.69104,0.53939 -5.5558,-2.67271 -6.28554,-5.3185 -1.58551,-5.74857 5.80205,-16.9226 5.80205,-16.9226 0,0 -6.16698,13.76043 -12.57108,14.98857 -4.67404,0.89638 -9.19303,-0.58328 -9.67005,-5.31854 -0.75699,-7.51452 14.50507,-15.95556 14.50507,-15.95556 0,0 -14.80982,8.68925 -20.79061,4.83502 -2.07235,-1.33548 -2.68113,-5.11626 -1.45049,-7.25254 3.99424,-6.93355 22.72459,-7.73603 22.72459,-7.73603 -12.68167,-22.01358 -10.76238,-52.78775 -11.12055,-82.19544 v 0"
                 id="path4491-3-08"
                 inkscape:connector-curvature="0"
                 sodipodi:nodetypes="ccsscsscsscssccc" />
              <path
                 sodipodi:nodetypes="ccccccsccccccccc"
                 inkscape:connector-curvature="0"
                 id="path4493-7-3"
                 d="m 154.18635,56.085745 c 8.9405,-2.435447 18.41663,-3.049802 30.47174,5.104467 -1.24993,-5.117975 0.29365,-10.235923 -7.34317,-15.353898 15.6391,1.260137 22.25737,10.84721 30.04024,19.359264 L 200.67955,49.84168 c 8.45131,3.234311 15.42638,9.052075 21.36194,16.689003 3.03912,-0.303913 -15.28538,-33.456885 -48.7319,-35.380702 -23.2404,-1.336769 -35.32575,29.102272 -32.0429,30.040231 l -15.3539,57.410208 10.0134,-22.029511 -9.34584,51.402171 9.34584,-19.35927 2.00266,20.02681 3.33784,-10.0134 8.0107,10.0134 c 7.95847,-30.19879 18.22947,-59.924213 4.90896,-92.554875 z"
                 style="fill:#1a1a1a;stroke:#000000;stroke-width:2.6434px;stroke-linecap:butt;stroke-linejoin:miter;stroke-opacity:1" />
              <path
                 sodipodi:nodetypes="cccccccc"
                 inkscape:connector-curvature="0"
                 id="path4495-0-5"
                 d="m 163.84139,76.793569 8.9687,23.601821 c 5.64536,-1.352343 12.00623,0.0679 16.52128,-5.664417 l -3.54029,-20.651599 7.96561,19.5305 c 5.542,0.556597 12.75913,0.917184 17.99641,-2.183158 l -7.43458,-22.451255 z"
                 style="fill:#ffffff;stroke:#000000;stroke-width:2.6434px;stroke-linecap:butt;stroke-linejoin:miter;stroke-opacity:1" />
              <path
                 inkscape:connector-curvature="0"
                 id="path4497-6-9"
                 d="m 167.61767,84.818205 -9.44073,-8.024636"
                 style="fill:#ffffff;stroke:#000000;stroke-width:2.6434px;stroke-linecap:butt;stroke-linejoin:miter;stroke-opacity:1" />
            </g>
          </g>
        </g>
        <path
           id="path99638"
           style="font-size:12.1661px;line-height:1;font-family:'OCR A Extended';-inkscape-font-specification:'OCR A Extended, Normal';letter-spacing:0px;word-spacing:0px;fill:#ffffff;stroke-width:0.334721"
           d="m -2258.6066,1296.8868 0.5354,5.7015 c 0.016,0.1748 0.09,0.3182 0.2214,0.4318 0.137,0.1179 0.2923,0.1695 0.4669,0.1532 0.1746,-0.016 0.3164,-0.096 0.4238,-0.2369 0.1131,-0.1363 0.1611,-0.2914 0.1446,-0.466 l -0.4174,-4.4449 8.0587,-0.7568 c 0.1696,-0.015 0.3105,-0.092 0.4235,-0.2287 0.113,-0.1363 0.1618,-0.2891 0.1459,-0.4587 -0.016,-0.1696 -0.092,-0.3111 -0.2288,-0.4241 -0.1363,-0.1128 -0.2891,-0.1612 -0.4586,-0.1453 z m 32.6274,2.2353 c 0,0 -1.1599,1.0097 -1.1832,1.6161 -0.024,0.6433 0.7874,1.1123 0.808,1.7555 0.017,0.5576 -0.601,1.5644 -0.601,1.5644 0,0 1.1822,-0.9761 1.2251,-1.5903 0.048,-0.6705 -0.8259,-1.1521 -0.8641,-1.823 -0.031,-0.5423 0.6152,-1.5227 0.6152,-1.5227 z m -16.6035,2.8125 c -0.1696,0.015 -0.3082,0.092 -0.4162,0.2279 -0.1084,0.1302 -0.1543,0.2837 -0.1379,0.4579 l 0.2788,2.9684 -0.4682,-0.3254 c -0.4366,-0.3113 -0.9015,-0.4433 -1.3952,-0.3971 l -0.9052,0.085 c -0.4987,0.047 -0.9166,0.2473 -1.2556,0.6012 l -0.4746,0.4889 c -0.147,0.1496 -0.2683,0.3654 -0.3627,0.6458 -0.095,0.2754 -0.1288,0.555 -0.1019,0.8393 l 0.2402,2.558 c 0.022,0.2343 0.098,0.4804 0.2274,0.7398 0.1351,0.2588 0.2688,0.4401 0.3994,0.5436 l 0.5648,0.3925 c 0.4634,0.3288 0.909,0.4732 1.3379,0.4328 l 1.0693,-0.1008 c 0.5335,-0.05 1.0785,-0.4061 1.6351,-1.0671 l 0.027,0.2771 c 0.016,0.1744 0.09,0.3187 0.2214,0.4321 0.1309,0.1078 0.2864,0.1541 0.466,0.1374 0.1694,-0.016 0.3107,-0.089 0.4242,-0.221 0.1129,-0.1368 0.161,-0.2921 0.1446,-0.4665 l -0.8153,-8.6825 c -0.016,-0.1744 -0.095,-0.3154 -0.2356,-0.4228 -0.1364,-0.1135 -0.2922,-0.1615 -0.4666,-0.1452 z m 14.9328,-0.863 v 0 c -0.028,0 -0.052,0.021 -0.079,0.034 l -0.9259,0.6716 c -0.049,0.035 -0.068,0.075 -0.064,0.1264 l 0.011,0.097 c 0.011,0.052 0.033,0.088 0.086,0.1103 l 1.0348,0.4876 c 0.031,0.015 0.058,0.021 0.083,0.019 0.032,0 0.058,-0.021 0.081,-0.046 0.023,-0.029 0.033,-0.059 0.03,-0.092 0,-0.048 -0.024,-0.08 -0.065,-0.1 l -0.9682,-0.4548 0.8664,-0.6283 c 0.035,-0.025 0.049,-0.059 0.045,-0.1067 0,-0.036 -0.019,-0.065 -0.047,-0.087 -0.028,-0.022 -0.056,-0.032 -0.087,-0.029 z m 2.3439,-0.2202 c -0.028,0 -0.05,0.02 -0.071,0.041 -0.023,0.024 -0.032,0.058 -0.03,0.094 0,0.048 0.028,0.082 0.068,0.1008 l 0.9662,0.4528 -0.8645,0.6304 c -0.035,0.025 -0.052,0.062 -0.048,0.1085 0,0.036 0.018,0.065 0.046,0.086 0.028,0.021 0.057,0.031 0.089,0.029 0.026,0 0.052,-0.02 0.08,-0.034 l 0.9266,-0.6717 c 0.046,-0.033 0.067,-0.073 0.062,-0.1237 l -0.011,-0.098 c -0.011,-0.05 -0.033,-0.087 -0.084,-0.1101 l -1.0355,-0.4875 c -0.031,-0.015 -0.06,-0.021 -0.084,-0.018 h -0.011 z m -3.6073,2.5424 v 0 c -0.1608,0.016 -0.2922,0.098 -0.3981,0.2259 -0.1084,0.13 -0.1548,0.2833 -0.1385,0.4579 l 0.1139,1.2119 2.6231,4.7177 c 0.1632,0.2913 0.3914,0.4237 0.6856,0.396 l 0.8083,-0.075 c 0.2294,-0.022 0.4,-0.186 0.5119,-0.4937 l 1.7111,-5.1549 -0.1124,-1.1967 c -0.016,-0.1744 -0.091,-0.3157 -0.2281,-0.4235 -0.1315,-0.114 -0.2842,-0.1617 -0.4588,-0.1453 -0.1795,0.017 -0.3253,0.093 -0.4382,0.2295 -0.1135,0.1307 -0.1623,0.2841 -0.1459,0.4588 l 0.089,0.9496 -0.1681,0.5088 c -0.9612,0.07 -2.9245,0.2226 -3.389,0.3183 l -0.2558,-0.4559 -0.091,-0.9655 c -0.016,-0.1747 -0.092,-0.3152 -0.2282,-0.423 -0.1313,-0.1141 -0.2846,-0.1617 -0.4591,-0.1453 z m -5.741,0.5392 -1.7643,0.1656 c -0.4187,0.039 -0.7878,0.2147 -1.1056,0.5259 l -0.4848,0.4607 c -0.1799,0.1734 -0.3214,0.4047 -0.4248,0.6963 -0.099,0.2908 -0.1397,0.5189 -0.1242,0.6833 l 0.2704,2.8787 c 0.02,0.2096 0.099,0.4333 0.2365,0.6719 0.1431,0.2381 0.3084,0.4195 0.4959,0.5426 l 0.6068,0.4407 c 0.1239,0.089 0.3104,0.1691 0.5586,0.2414 0.2527,0.066 0.4892,0.09 0.7085,0.069 l 3.313,-0.3111 c 0.1646,-0.016 0.3026,-0.091 0.4157,-0.2275 0.1178,-0.1374 0.1684,-0.2903 0.1525,-0.46 -0.016,-0.1743 -0.091,-0.3157 -0.2281,-0.4234 -0.1363,-0.1135 -0.2886,-0.1614 -0.4581,-0.1455 l -3.2312,0.3035 c -0.1795,0.016 -0.3756,-0.043 -0.5894,-0.179 l -0.3955,-0.2721 c -0.1986,-0.1328 -0.3076,-0.3056 -0.3278,-0.5199 l -0.035,-0.3668 4.4419,-0.4172 c 0.1696,-0.016 0.31,-0.092 0.4231,-0.2281 0.1128,-0.1369 0.1612,-0.2891 0.1453,-0.4586 l -0.1426,-1.518 c -0.056,-0.6033 -0.2683,-1.0419 -0.6359,-1.3141 l -0.5133,-0.4036 c -0.4284,-0.3321 -0.8644,-0.4773 -1.3082,-0.4356 z m -10.8674,2.2885 0.8742,-0.082 c 0.2243,-0.021 0.4101,0.025 0.5563,0.1367 l 1.1074,0.7779 c 0.1879,0.1277 0.2957,0.3446 0.3243,0.6488 l 0.1278,1.3612 c 0.02,0.2143 -0.046,0.402 -0.1964,0.562 l -0.9168,0.9153 c -0.1699,0.1723 -0.3226,0.2645 -0.4572,0.2771 l -1.0247,0.097 c -0.1446,0.014 -0.2867,-0.032 -0.4272,-0.134 l -0.445,-0.312 c -0.1776,-0.124 -0.2742,-0.2733 -0.2906,-0.4475 l -0.2501,-2.6635 c -0.018,-0.1945 0.036,-0.36 0.1645,-0.4977 l 0.3705,-0.3899 c 0.1371,-0.1488 0.2986,-0.2313 0.483,-0.2487 z m 9.3124,-0.8582 1.5776,-0.1482 c 0.1495,-0.014 0.3265,0.049 0.5304,0.1845 l 0.3963,0.2864 c 0.1564,0.1116 0.2455,0.2845 0.2675,0.5189 l 0.082,0.8743 -3.8143,0.3582 -0.091,-0.9713 c -0.019,-0.1995 0.048,-0.3697 0.2012,-0.5097 l 0.3374,-0.3411 c 0.1469,-0.1496 0.3185,-0.2338 0.5129,-0.252 z m 23.0026,2.7367 c -0.1746,0.016 -0.3153,0.095 -0.4228,0.2356 -0.113,0.1363 -0.1584,0.2918 -0.1446,0.4667 l 0.4174,4.4442 -8.0593,0.7569 c -0.1696,0.016 -0.3104,0.092 -0.4235,0.2287 -0.1129,0.1364 -0.1612,0.2897 -0.1453,0.4592 0.016,0.1695 0.091,0.3106 0.2283,0.4236 0.1364,0.1128 0.2889,0.1613 0.4586,0.1453 l 9.3159,-0.875 -0.5353,-5.701 c -0.016,-0.1746 -0.09,-0.3187 -0.2221,-0.4321 -0.137,-0.118 -0.2926,-0.1684 -0.4673,-0.1521 z" />
      </g>
    </g>
    <path
       id="path103529-6"
       style="font-size:12.1661px;line-height:1;font-family:'OCR A Extended';-inkscape-font-specification:'OCR A Extended, Normal';letter-spacing:0px;word-spacing:0px;fill:#ffffff;stroke-width:0.212776"
       d="m 129.42135,92.202842 v 3.6401 c 0,0.11138 0.0383,0.20718 0.11472,0.28681 0.0796,0.083 0.1748,0.124 0.28628,0.124 0.11147,0 0.20574,-0.041 0.28215,-0.124 0.0796,-0.08 0.11938,-0.17543 0.11938,-0.28681 v -2.83763 h 5.14489 c 0.10832,0 0.20255,-0.0399 0.28217,-0.11937 0.0796,-0.08 0.11938,-0.17378 0.11938,-0.28213 0,-0.1083 -0.0397,-0.20198 -0.11938,-0.28161 -0.0796,-0.0799 -0.17385,-0.11936 -0.28217,-0.11936 z m 13.6462,4.06123 c -0.11148,0 -0.20719,0.0378 -0.28681,0.11473 -0.0764,0.076 -0.11472,0.16878 -0.11472,0.27692 v 5.546478 c 0,0.11139 0.0383,0.20714 0.11472,0.28682 0.0796,0.076 0.17533,0.11474 0.28681,0.11474 0.11148,0 0.2052,-0.0378 0.28163,-0.11474 0.0796,-0.0799 0.11938,-0.17543 0.11938,-0.28682 v -2.551238 l 1.14204,-0.74523 c 0.12103,-0.08 0.23243,-0.11931 0.33436,-0.11931 h 0.44906 c 0.11147,0 0.20667,0.0404 0.2863,0.11931 0.0795,0.08 0.12119,0.17389 0.12453,0.28219 l 0.10025,3.014278 c 0.003,0.10511 0.0429,0.19884 0.11937,0.28161 0.0764,0.08 0.17016,0.11995 0.28164,0.11995 0.11146,0 0.20719,-0.0378 0.2868,-0.11474 0.0798,-0.0799 0.11807,-0.17543 0.11473,-0.28682 l -0.10026,-3.004968 c -0.01,-0.33437 -0.13225,-0.61762 -0.36794,-0.85008 -0.23568,-0.23569 -0.51737,-0.35405 -0.84542,-0.35405 h -0.49713 c -0.22931,0 -0.49041,0.093 -0.78341,0.27751 l -0.64492,0.42028 v -2.02586 c 0,-0.11144 -0.0397,-0.20521 -0.11938,-0.2816 -0.0764,-0.08 -0.17015,-0.11936 -0.28163,-0.11936 z m -5.08807,0.34367 c -0.11146,0 -0.20717,0.0404 -0.2868,0.11985 -0.0764,0.076 -0.11471,0.17016 -0.11471,0.28166 v 0.98385 h -0.42014 c -0.11148,0 -0.20719,0.0399 -0.28681,0.11995 -0.0764,0.076 -0.11472,0.17022 -0.11472,0.2816 0,0.11474 0.0383,0.21044 0.11472,0.28677 0.0796,0.077 0.17533,0.11484 0.28681,0.11484 h 0.41082 v 2.603368 c 0,0.33123 0.11925,0.61443 0.35812,0.85013 0.23887,0.23564 0.52402,0.354 0.85526,0.354 h 0.80252 c 0.35352,0 0.64359,-0.11985 0.86972,-0.35858 0.2293,-0.24213 0.34365,-0.48405 0.34365,-0.72613 0,-0.11783 -0.0383,-0.21501 -0.11473,-0.29145 -0.0733,-0.0799 -0.16844,-0.11936 -0.28628,-0.11936 -0.20065,0 -0.33611,0.11628 -0.40618,0.34878 -0.0701,0.22926 -0.21191,0.34358 -0.4253,0.34358 h -0.7834 c -0.11148,0 -0.20866,-0.0399 -0.29147,-0.11926 -0.0796,-0.08 -0.11937,-0.17341 -0.11937,-0.28171 v -2.603368 h 1.62419 c 0.10829,0 0.20253,-0.0378 0.28215,-0.11484 0.0796,-0.0799 0.11938,-0.17527 0.11938,-0.28677 0,-0.10819 -0.0398,-0.20208 -0.11938,-0.2816 -0.0796,-0.08 -0.17386,-0.11995 -0.28215,-0.11995 h -1.61489 v -0.98385 c 0,-0.10831 -0.0412,-0.20203 -0.12402,-0.28166 -0.0796,-0.08 -0.17188,-0.11985 -0.27699,-0.11985 z m 12.09125,1.38536 c -0.26753,0 -0.51094,0.0891 -0.73069,0.26767 l -0.33436,0.26309 c -0.12421,0.099 -0.22776,0.23713 -0.31057,0.41549 -0.0796,0.17836 -0.11938,0.32022 -0.11938,0.42528 v 1.839248 c 0,0.13362 0.0363,0.27995 0.10957,0.43916 0.0764,0.15926 0.17068,0.28341 0.28215,0.37262 l 0.35811,0.31564 c 0.0733,0.064 0.18612,0.12564 0.339,0.18618 0.15606,0.0569 0.30428,0.086 0.44442,0.086 h 2.11667 c 0.1051,0 0.19736,-0.0399 0.27698,-0.1199 0.0828,-0.08 0.12403,-0.17336 0.12403,-0.2816 0,-0.1115 -0.0397,-0.20517 -0.11937,-0.28166 -0.0796,-0.08 -0.17335,-0.12 -0.28164,-0.12 h -2.06396 c -0.11467,0 -0.2359,-0.0489 -0.36328,-0.14761 l -0.23411,-0.19597 c -0.11784,-0.096 -0.17673,-0.21186 -0.17673,-0.34878 v -0.2341 h 2.83808 c 0.10829,0 0.202,-0.0399 0.28164,-0.11942 0.0796,-0.08 0.11937,-0.17389 0.11937,-0.28214 v -0.969438 c 0,-0.38538 -0.10796,-0.67539 -0.32454,-0.86965 l -0.30127,-0.28681 c -0.25161,-0.2357 -0.51908,-0.35352 -0.80254,-0.35352 z m 0.0574,0.81242 h 1.00822 c 0.0956,0 0.2035,0.0505 0.32453,0.14835 l 0.2341,0.20506 c 0.0924,0.08 0.13901,0.19447 0.13901,0.34421 v 0.558578 h -2.43655 v -0.620548 c 0,-0.12745 0.0525,-0.23102 0.15761,-0.31064 l 0.23409,-0.19581 c 0.10192,-0.086 0.21479,-0.1292 0.33899,-0.1292 z m 0.94001,6.439418 c 0,0 -0.79464,0.57028 -0.84544,0.9529 -0.054,0.40581 0.43242,0.75103 0.40721,1.15961 -0.0218,0.3541 -0.47335,0.95497 -0.47335,0.95497 0,0 0.80653,-0.54794 0.87024,-0.93433 0.0697,-0.42177 -0.45444,-0.77848 -0.43875,-1.20552 0.0127,-0.34522 0.48009,-0.92763 0.48009,-0.92763 z m -10.681,0.79327 c -0.10829,0 -0.20056,0.0399 -0.277,0.11984 -0.0764,0.076 -0.11471,0.17022 -0.11471,0.28161 v 1.89648 l -0.277,-0.23399 c -0.25797,-0.22299 -0.54458,-0.33443 -0.85989,-0.33443 h -0.57826 c -0.31848,0 -0.59528,0.10213 -0.83096,0.30608 l -0.32968,0.2816 c -0.10193,0.086 -0.19126,0.215 -0.2677,0.38692 -0.0764,0.16879 -0.11472,0.344 -0.11472,0.52566 v 1.63392 c 0,0.14974 0.0334,0.31022 0.10025,0.48214 0.0701,0.17203 0.14371,0.29469 0.22015,0.36799 l 0.33434,0.28208 c 0.2739,0.23576 0.54775,0.35358 0.82166,0.35358 h 0.68316 c 0.34079,0 0.70691,-0.19299 1.09865,-0.57837 v 0.17681 c 0,0.11144 0.0383,0.20714 0.11471,0.28682 0.0764,0.076 0.17216,0.11474 0.28681,0.11474 0.10828,0 0.20201,-0.0378 0.28163,-0.11474 0.0796,-0.08 0.11938,-0.17538 0.11938,-0.28682 v -5.54647 c 0,-0.11139 -0.0412,-0.20517 -0.12402,-0.28161 -0.0796,-0.08 -0.17534,-0.11984 -0.2868,-0.11984 z m 20.81992,0 c -0.11149,0 -0.20719,0.0399 -0.28681,0.11984 -0.0764,0.076 -0.11473,0.17022 -0.11473,0.28161 0,0.11149 0.0384,0.20718 0.11473,0.28681 0.0796,0.076 0.17532,0.11474 0.28681,0.11474 h 0.81183 v 4.73406 h -0.80254 c -0.11147,0 -0.20719,0.0399 -0.28681,0.11937 -0.0764,0.08 -0.11419,0.17389 -0.11419,0.28219 0,0.11138 0.0378,0.20862 0.11419,0.29144 0.0796,0.0799 0.17534,0.11942 0.28681,0.11942 h 2.42672 c 0.11149,0 0.20573,-0.0404 0.28217,-0.11942 0.0796,-0.083 0.11937,-0.18006 0.11937,-0.29144 0,-0.1083 -0.0397,-0.20256 -0.11937,-0.28219 -0.0796,-0.08 -0.17388,-0.11937 -0.28217,-0.11937 h -0.81183 v -5.13561 c 0,-0.1083 -0.0398,-0.20198 -0.11937,-0.28161 -0.0796,-0.08 -0.17386,-0.11984 -0.28215,-0.11984 z m 30.38832,0 c -0.13058,0 -0.23414,0.0425 -0.31057,0.12915 -0.0733,0.086 -0.10955,0.19251 -0.10955,0.3199 v 2.68965 c 0,0.12112 0.0382,0.2232 0.11471,0.30591 0.0796,0.083 0.17827,0.12416 0.29611,0.12416 0.19748,0 0.32804,-0.10017 0.39171,-0.30086 l 0.80252,-2.76162 c 0.01,-0.0319 0.0145,-0.065 0.0145,-0.10016 0,-0.1083 -0.0403,-0.20198 -0.1199,-0.28171 -0.0796,-0.083 -0.1748,-0.12442 -0.28627,-0.12442 z m -41.70134,0.34203 c -0.017,0 -0.0342,0.0101 -0.0512,0.017 l -0.62631,0.37012 c -0.0321,0.0191 -0.0481,0.0436 -0.0481,0.076 v 0.062 c 1.7e-4,0.033 0.0161,0.058 0.0481,0.075 l 0.62631,0.36996 c 0.0183,0.0106 0.0354,0.017 0.0512,0.017 0.0203,0 0.0385,-0.0101 0.0543,-0.0245 0.0163,-0.016 0.0243,-0.0351 0.0243,-0.0569 0,-0.0303 -0.0113,-0.0521 -0.0346,-0.067 l -0.586,-0.34576 0.586,-0.34623 c 0.0233,-0.0144 0.0346,-0.0351 0.0346,-0.065 0,-0.0229 -0.008,-0.042 -0.0243,-0.0581 -0.0158,-0.016 -0.0341,-0.0245 -0.0543,-0.0245 z m 1.49759,0 c -0.0172,0 -0.0332,0.0101 -0.0475,0.0218 -0.0157,0.0149 -0.0238,0.0351 -0.0238,0.058 0,0.0303 0.0122,0.0527 0.0362,0.068 l 0.58498,0.34421 -0.58498,0.34778 c -0.0239,0.0144 -0.0362,0.0362 -0.0362,0.066 0,0.0229 0.008,0.042 0.0238,0.0569 0.0164,0.0149 0.0346,0.0229 0.0548,0.0229 0.0163,0 0.0339,-0.0101 0.0522,-0.017 l 0.62632,-0.36996 c 0.0309,-0.0175 0.0465,-0.0426 0.0465,-0.075 v -0.062 c 0,-0.0319 -0.0156,-0.0569 -0.0465,-0.075 l -0.62632,-0.37001 c -0.0189,-0.0106 -0.0365,-0.017 -0.0522,-0.017 -0.003,0 -0.005,0 -0.007,0 z m 21.24263,1.20051 c -0.11466,0 -0.21183,0.0404 -0.29145,0.1199 -0.0796,0.08 -0.11937,0.1733 -0.11937,0.2816 v 5.72319 c 0,0.11457 0.0398,0.21181 0.11937,0.29139 0.0828,0.08 0.17997,0.11936 0.29145,0.11936 0.11148,0 0.20521,-0.0399 0.28164,-0.11936 0.0796,-0.08 0.11937,-0.17682 0.11937,-0.29139 v -1.77718 l 0.31058,0.31054 c 0.21657,0.21655 0.48111,0.32501 0.79323,0.32501 h 0.17674 c 0.33122,0 0.60508,-0.099 0.82165,-0.29607 l 0.65474,-0.56379 c 0.31529,-0.2707 0.47283,-0.60337 0.47283,-0.99843 v -1.25206 c 0,-0.39177 -0.14676,-0.71465 -0.43976,-0.96944 l -0.66869,-0.57831 c -0.23887,-0.21017 -0.49996,-0.31512 -0.78342,-0.31512 h -0.18654 c -0.379,0 -0.7628,0.21634 -1.15136,0.64943 v -0.25777 c 0,-0.1083 -0.0398,-0.20203 -0.11937,-0.2816 -0.0796,-0.0801 -0.17335,-0.1199 -0.28164,-0.1199 z m -4.77748,0.1865 c -0.38218,0 -0.73701,0.15606 -1.06505,0.4682 -0.32486,0.30889 -0.48731,0.63869 -0.48731,0.98907 v 1.696 c 0,0.35044 0.16684,0.68108 0.50126,0.99322 0.33441,0.309 0.68484,0.46358 1.0511,0.46358 h 0.94103 c 0.35988,0 0.70884,-0.15267 1.04643,-0.45837 0.3408,-0.3058 0.51109,-0.63853 0.51109,-0.99843 v -1.696 c 0,-0.36634 -0.17029,-0.70247 -0.51109,-1.00817 -0.33759,-0.30607 -0.68655,-0.45581 -1.04643,-0.4491 z m 16.5871,0 c -0.11147,0 -0.20718,0.0409 -0.28681,0.12399 -0.0764,0.08 -0.11472,0.17543 -0.11472,0.28681 v 3.80761 c 0,0.11138 0.0383,0.20708 0.11472,0.28676 0.0796,0.0761 0.17534,0.11474 0.28681,0.11474 0.10829,0 0.20202,-0.0378 0.28164,-0.11474 0.0796,-0.08 0.11937,-0.17538 0.11937,-0.28676 v -2.2407 l 1.14205,-0.98865 c 0.13694,-0.11776 0.26112,-0.1767 0.37258,-0.1767 h 0.5209 c 0.11147,0 0.20521,0.0404 0.28164,0.11936 0.0796,0.077 0.11937,0.17022 0.11937,0.28166 v 0.22485 c 0,0.11149 0.0383,0.20654 0.11472,0.28633 0.0796,0.0759 0.17534,0.11463 0.28681,0.11463 0.11147,0 0.2052,-0.0404 0.28164,-0.11941 0.0796,-0.0799 0.11937,-0.17676 0.11937,-0.2915 v -0.2149 c 0,-0.33134 -0.11779,-0.61443 -0.35347,-0.85008 -0.23568,-0.23569 -0.51886,-0.35346 -0.85008,-0.35346 h -0.58807 c -0.25799,0 -0.52201,0.11431 -0.79272,0.34368 l -0.65474,0.55911 v -0.50183 c 0,-0.11463 -0.0398,-0.21181 -0.11937,-0.29144 -0.0764,-0.08 -0.17017,-0.11936 -0.28164,-0.11936 z m -40.28231,0.0101 c -0.26753,0 -0.51146,0.089 -0.73121,0.26724 l -0.33435,0.26294 c -0.12421,0.099 -0.22776,0.23708 -0.31057,0.41554 -0.0796,0.17825 -0.11937,0.32022 -0.11937,0.42528 v 1.83903 c 0,0.13384 0.0368,0.28007 0.11006,0.43938 0.0764,0.15926 0.17016,0.28384 0.28164,0.37309 l 0.35811,0.31517 c 0.0732,0.064 0.18665,0.12554 0.33952,0.18612 0.15606,0.0569 0.30428,0.086 0.44441,0.086 h 2.11616 c 0.10511,0 0.19736,-0.0399 0.27698,-0.11942 0.0828,-0.08 0.12403,-0.17389 0.12403,-0.28219 0,-0.11139 -0.0397,-0.20522 -0.11937,-0.2816 -0.0796,-0.08 -0.17335,-0.11942 -0.28164,-0.11942 h -2.06396 c -0.11465,0 -0.23538,-0.0495 -0.36277,-0.1483 l -0.23408,-0.19581 c -0.11784,-0.096 -0.17675,-0.21192 -0.17675,-0.34889 v -0.23415 h 2.83756 c 0.10829,0 0.20201,-0.0399 0.28164,-0.11926 0.0796,-0.0799 0.11937,-0.17341 0.11937,-0.28171 v -0.96987 c 0,-0.38538 -0.10795,-0.6755 -0.32452,-0.8697 l -0.30129,-0.28629 c -0.2516,-0.23575 -0.51907,-0.35346 -0.80253,-0.35346 z m 4.79455,0 c -0.10263,0 -0.19097,0.0452 -0.26562,0.11942 -0.0764,0.076 -0.11473,0.17006 -0.11473,0.28155 v 0.77412 l 1.38029,3.14354 c 0.086,0.19426 0.22292,0.2915 0.41083,0.2915 h 0.51624 c 0.14651,0 0.2643,-0.0941 0.35347,-0.2823 l 1.3901,-3.16253 v -0.76433 c 0,-0.11149 -0.0397,-0.20517 -0.11938,-0.28155 -0.0764,-0.08 -0.17017,-0.11942 -0.28163,-0.11942 -0.11465,0 -0.21184,0.0404 -0.29146,0.11942 -0.0796,0.076 -0.11938,0.17006 -0.11938,0.28155 v 0.60672 l -0.13694,0.31208 c -0.61285,-0.0128 -1.86496,-0.033 -2.16471,0 l -0.13489,-0.30384 v -0.61656 c 0,-0.11149 -0.0397,-0.20521 -0.11937,-0.28155 -0.0764,-0.08 -0.17067,-0.11941 -0.28216,-0.11941 -0.007,0 -0.0138,0 -0.0207,0 z m 7.02438,0 c -0.26753,0 -0.51147,0.089 -0.73122,0.26724 l -0.33435,0.26294 c -0.12422,0.099 -0.22778,0.23708 -0.31057,0.41554 -0.0796,0.17825 -0.11937,0.32022 -0.11937,0.42528 v 1.83903 c 0,0.13384 0.0368,0.28007 0.11007,0.43938 0.0764,0.15926 0.17015,0.28384 0.28163,0.37309 l 0.35864,0.31517 c 0.0733,0.064 0.18611,0.12554 0.339,0.18612 0.15605,0.0569 0.30428,0.086 0.44441,0.086 h 2.11615 c 0.1051,0 0.19737,-0.0399 0.27699,-0.11942 0.0828,-0.08 0.12454,-0.17389 0.12454,-0.28219 0,-0.11139 -0.0398,-0.20522 -0.11937,-0.2816 -0.0796,-0.08 -0.17388,-0.11942 -0.28216,-0.11942 h -2.06344 c -0.11466,0 -0.23589,-0.0495 -0.36329,-0.1483 l -0.2341,-0.19581 c -0.11782,-0.096 -0.17672,-0.21192 -0.17672,-0.34889 v -0.23415 h 2.83755 c 0.10828,0 0.20253,-0.0399 0.28216,-0.11926 0.0796,-0.0799 0.11937,-0.17341 0.11937,-0.28171 v -0.96987 c 0,-0.38538 -0.10848,-0.6755 -0.32505,-0.8697 l -0.30076,-0.28629 c -0.25161,-0.23575 -0.51908,-0.35346 -0.80254,-0.35346 z m 23.63835,0 c -0.26753,0 -0.51145,0.089 -0.73123,0.26724 l -0.33434,0.26294 c -0.1242,0.099 -0.22776,0.23708 -0.31057,0.41554 -0.0796,0.17825 -0.11937,0.32022 -0.11937,0.42528 v 1.83903 c 0,0.13384 0.0368,0.28007 0.11007,0.43938 0.0764,0.15926 0.17016,0.28384 0.28162,0.37309 l 0.35813,0.31517 c 0.0732,0.064 0.18663,0.12554 0.33951,0.18612 0.15606,0.0569 0.30428,0.086 0.44442,0.086 h 2.11615 c 0.10511,0 0.19737,-0.0399 0.27698,-0.11942 0.0828,-0.08 0.12455,-0.17389 0.12455,-0.28219 0,-0.11139 -0.0403,-0.20522 -0.11989,-0.2816 -0.0796,-0.08 -0.17335,-0.11942 -0.28164,-0.11942 h -2.06396 c -0.11465,0 -0.23537,-0.0495 -0.36276,-0.1483 l -0.2341,-0.19581 c -0.11784,-0.096 -0.17673,-0.21192 -0.17673,-0.34889 v -0.23415 h 2.83755 c 0.10829,0 0.20202,-0.0399 0.28164,-0.11926 0.0796,-0.0799 0.11989,-0.17341 0.11989,-0.28171 v -0.96987 c 0,-0.38538 -0.10847,-0.6755 -0.32505,-0.8697 l -0.30075,-0.28629 c -0.25161,-0.23575 -0.5196,-0.35346 -0.80306,-0.35346 z m 17.36535,0 c -0.29301,0 -0.53987,0.105 -0.74052,0.31517 -0.19746,0.21022 -0.29611,0.45852 -0.29611,0.74523 0,0.1815 0.056,0.35969 0.16743,0.53491 0.11147,0.17506 0.27048,0.3091 0.47749,0.4015 l 2.15439,0.96939 c 0.17835,0.0799 0.26769,0.2107 0.26769,0.39224 0,0.11788 -0.0398,0.22283 -0.11938,0.31528 -0.0796,0.0889 -0.17826,0.13378 -0.2961,0.13378 h -1.49552 c -0.21975,0 -0.38859,-0.0569 -0.50643,-0.17203 -0.11465,-0.11468 -0.2226,-0.17208 -0.32452,-0.17208 -0.1242,0 -0.2263,0.041 -0.30593,0.12399 -0.0764,0.08 -0.11472,0.17192 -0.11472,0.27698 0,0.15921 0.11927,0.32363 0.35812,0.49246 0.24205,0.16873 0.50365,0.25315 0.78393,0.25331 h 1.6242 c 0.30892,0 0.58424,-0.1199 0.82629,-0.35868 0.24524,-0.23889 0.36794,-0.52986 0.36794,-0.87386 0,-0.25804 -0.0702,-0.49209 -0.21032,-0.7023 -0.13696,-0.21341 -0.31363,-0.36805 -0.5302,-0.46347 l -2.13526,-0.94625 c -0.11785,-0.0539 -0.17675,-0.13368 -0.17675,-0.23873 0,-0.14974 0.0888,-0.22432 0.26717,-0.22432 h 1.81539 c 0.11465,0 0.22459,0.0569 0.3297,0.17155 0.10511,0.11474 0.22142,0.17213 0.34881,0.17213 0.0987,0 0.18807,-0.0362 0.26769,-0.10963 0.0828,-0.073 0.12402,-0.16745 0.12402,-0.28203 0,-0.16245 -0.10994,-0.32782 -0.32969,-0.49661 -0.21976,-0.17202 -0.47301,-0.25793 -0.75965,-0.25793 z m -22.84512,0.62576 h 0.23409 c 0.0892,0 0.17213,0.033 0.24857,0.10033 l 0.67334,0.57772 c 0.11783,0.099 0.17674,0.21208 0.17674,0.33948 v 1.2945 c 0,0.1433 -0.0525,0.25618 -0.15762,0.33905 l -0.6258,0.54981 c -0.11147,0.0989 -0.21649,0.14771 -0.31523,0.14771 h -0.20567 c -0.10828,0 -0.23392,-0.072 -0.37723,-0.21484 l -0.57775,-0.57832 c -0.11784,-0.11777 -0.17725,-0.23867 -0.17725,-0.36282 v -1.02727 c 0,-0.13059 0.053,-0.2483 0.15813,-0.35346 l 0.59687,-0.59225 c 0.14331,-0.1465 0.25963,-0.21964 0.34881,-0.21964 z m -6.18205,0.16692 h 0.83147 c 0.1274,0 0.23881,0.0404 0.33435,0.11942 l 0.28215,0.22479 c 0.0987,0.076 0.1478,0.19421 0.1478,0.35342 v 1.62419 c 0,0.13697 -0.0491,0.24394 -0.1478,0.32038 l -0.24391,0.21501 c -0.11146,0.099 -0.23564,0.14782 -0.37259,0.14782 h -0.93172 c -0.12102,0 -0.21476,-0.0277 -0.28164,-0.086 l -0.30127,-0.25778 c -0.10511,-0.0861 -0.15762,-0.20234 -0.15762,-0.34894 v -1.62409 c 0,0 0,0 0,0 1.3e-4,-0.13351 0.0497,-0.24192 0.14832,-0.32463 l 0.27233,-0.23405 c 0.0987,-0.086 0.23859,-0.12926 0.42013,-0.12926 z m -29.68604,0.0101 h 0.55861 c 0.14332,0 0.25817,0.0399 0.34418,0.11942 l 0.65473,0.55852 c 0.11146,0.092 0.16692,0.23575 0.16692,0.43001 v 0.86971 c 0,0.13692 -0.0525,0.25187 -0.15762,0.34416 l -0.6351,0.52512 c -0.11785,0.0989 -0.21994,0.1483 -0.30593,0.1483 h -0.65474 c -0.0924,0 -0.1797,-0.0367 -0.26252,-0.11016 l -0.26302,-0.22432 c -0.10512,-0.089 -0.15762,-0.18926 -0.15762,-0.30064 v -1.70122 c 0,-0.12421 0.0447,-0.22586 0.13384,-0.30543 l 0.25786,-0.2248 c 0.0956,-0.086 0.20256,-0.12867 0.32041,-0.12867 z m 5.94795,0.0101 h 1.00769 c 0.0955,0 0.20401,0.0495 0.32505,0.14824 l 0.23408,0.20512 c 0.0924,0.08 0.1385,0.19452 0.1385,0.34426 v 0.55858 h -2.43654 v -0.62066 c 0,-0.12734 0.0525,-0.23096 0.15761,-0.31054 l 0.23409,-0.1958 c 0.10193,-0.0861 0.2153,-0.1292 0.33952,-0.1292 z m 11.81891,0 h 1.0077 c 0.0956,0 0.20402,0.0495 0.32504,0.14824 l 0.23409,0.20512 c 0.0924,0.08 0.1385,0.19452 0.1385,0.34426 v 0.55858 h -2.43655 v -0.62066 c 0,-0.12734 0.053,-0.23096 0.15814,-0.31054 l 0.23358,-0.1958 c 0.10191,-0.0861 0.2153,-0.1292 0.3395,-0.1292 z m 23.63836,0 h 1.00769 c 0.0956,0 0.20402,0.0495 0.32505,0.14824 l 0.23409,0.20512 c 0.0924,0.08 0.13849,0.19452 0.13849,0.34426 v 0.55858 h -2.43654 v -0.62066 c 0,-0.12734 0.0525,-0.23096 0.15761,-0.31054 l 0.23409,-0.1958 c 0.10192,-0.0861 0.21531,-0.1292 0.33952,-0.1292 z m 5.97122,6.87906 c -0.11125,2.7e-4 -0.20628,0.0399 -0.28578,0.11995 -0.0764,0.076 -0.11472,0.17011 -0.11472,0.28171 l -0.0103,0.35342 c -0.003,0.10181 0.0336,0.19415 0.11006,0.27697 0.0796,0.083 0.1768,0.12458 0.29146,0.12458 h 0.42994 c 0.11148,0 0.2052,-0.0399 0.28164,-0.11937 0.0796,-0.0831 0.11989,-0.18005 0.11989,-0.29155 v -0.34405 c 0,-0.1116 -0.0403,-0.20522 -0.11989,-0.28171 -0.0764,-0.08 -0.17016,-0.11995 -0.28164,-0.11995 h -0.42013 z m -6.73241,0.354 c -0.10264,0 -0.19149,0.0452 -0.26614,0.11942 -0.0764,0.076 -0.11472,0.17022 -0.11472,0.28166 0,0.11149 0.0383,0.20718 0.11472,0.28671 0.0796,0.076 0.17534,0.11484 0.28681,0.11484 h 0.81184 v 4.73396 h -0.80254 c -0.11147,0 -0.20718,0.0404 -0.2868,0.11941 -0.0764,0.08 -0.11421,0.17394 -0.11421,0.28219 0,0.11149 0.0378,0.20862 0.11421,0.29139 0.0796,0.08 0.17533,0.11947 0.2868,0.11947 h 2.42673 c 0.11147,0 0.20571,-0.0404 0.28215,-0.11947 0.0796,-0.0829 0.11937,-0.1799 0.11937,-0.29139 0,-0.10825 -0.0398,-0.20261 -0.11937,-0.28219 -0.0796,-0.08 -0.17386,-0.11941 -0.28215,-0.11941 h -0.81184 v -5.13551 c 0,-0.1083 -0.0397,-0.20203 -0.11937,-0.28166 -0.0796,-0.08 -0.17388,-0.11942 -0.28217,-0.11942 h -1.22265 c -0.007,0 -0.0138,0 -0.0207,0 z m 13.54026,0 c -0.42041,0 -0.7723,0.13501 -1.05575,0.40576 -0.28028,0.2707 -0.42014,0.61177 -0.42014,1.02258 v 0.31064 h -0.42064 c -0.12421,0 -0.22286,0.041 -0.2961,0.12405 -0.0701,0.0801 -0.10542,0.17181 -0.10542,0.27692 0,0.1083 0.0383,0.20256 0.11472,0.28219 0.0796,0.0799 0.17533,0.11937 0.2868,0.11937 h 0.41083 v 3.40604 c 0,0.11139 0.0398,0.20703 0.11937,0.28677 0.0796,0.076 0.1768,0.11473 0.29146,0.11473 0.10828,0 0.20252,-0.0378 0.28215,-0.11473 0.0796,-0.08 0.11937,-0.17538 0.11937,-0.28677 v -3.40604 h 0.81184 c 0.10829,0 0.20253,-0.0399 0.28215,-0.11937 0.0796,-0.08 0.11938,-0.17389 0.11938,-0.28219 0,-0.11138 -0.0398,-0.20665 -0.11938,-0.28628 -0.0796,-0.0801 -0.17386,-0.11804 -0.28215,-0.11469 h -0.80253 v -0.31064 c 0,-0.18155 0.0623,-0.32969 0.18655,-0.44443 0.12739,-0.11463 0.28639,-0.17208 0.47749,-0.17208 h 0.94102 c 0.10829,0 0.20254,-0.0399 0.28216,-0.11926 0.0796,-0.08 0.11937,-0.17346 0.11937,-0.28176 0,-0.11458 -0.0398,-0.21176 -0.11937,-0.29139 -0.0764,-0.08 -0.17068,-0.11942 -0.28216,-0.11942 z m -7.61039,1.72914 c -0.11147,0 -0.20666,0.042 -0.28629,0.12453 -0.0764,0.08 -0.11472,0.1749 -0.11472,0.28628 0,0.1083 0.0383,0.20256 0.11472,0.28219 0.0796,0.0799 0.17482,0.11937 0.28629,0.11937 h 0.81235 v 2.99508 h -0.82165 c -0.11148,0 -0.20719,0.0404 -0.28681,0.11941 -0.0764,0.08 -0.11472,0.17394 -0.11472,0.28219 0,0.11149 0.0383,0.20666 0.11472,0.28634 0.0796,0.076 0.17533,0.11468 0.28681,0.11468 h 2.44584 c 0.10829,0 0.20254,-0.0378 0.28216,-0.11468 0.0796,-0.08 0.11937,-0.17485 0.11937,-0.28634 0,-0.11144 -0.0417,-0.2058 -0.12455,-0.28219 -0.0796,-0.08 -0.17481,-0.11941 -0.28628,-0.11941 h -0.80253 v -3.39664 c 0,-0.11138 -0.0403,-0.20665 -0.11989,-0.28628 -0.0764,-0.0831 -0.17017,-0.12453 -0.28164,-0.12453 z m 12.5026,0.0101 c -0.26753,0 -0.51147,0.089 -0.73123,0.26719 l -0.33434,0.26298 c -0.12422,0.0991 -0.22777,0.23714 -0.31058,0.41555 -0.0796,0.1783 -0.11937,0.32011 -0.11937,0.42522 v 1.83915 c 0,0.13378 0.0368,0.28059 0.11007,0.43979 0.0764,0.15921 0.17016,0.28336 0.28164,0.37262 l 0.35863,0.31517 c 0.0733,0.064 0.18612,0.12548 0.339,0.18607 0.15606,0.0569 0.30428,0.0861 0.44442,0.0861 h 2.11615 c 0.10511,0 0.19736,-0.0404 0.27698,-0.11941 0.0828,-0.08 0.12454,-0.17394 0.12454,-0.28219 0,-0.11144 -0.0397,-0.20522 -0.11937,-0.28166 -0.0796,-0.0799 -0.17387,-0.11936 -0.28215,-0.11936 h -2.06396 c -0.11465,0 -0.23537,-0.05 -0.36277,-0.14831 l -0.23409,-0.1958 c -0.11785,-0.096 -0.17674,-0.21192 -0.17674,-0.34889 v -0.234 h 2.83756 c 0.10828,0 0.20252,-0.0404 0.28215,-0.11941 0.0796,-0.08 0.11937,-0.17336 0.11937,-0.28171 v -0.96987 c 0,-0.38538 -0.10847,-0.67555 -0.32504,-0.86976 l -0.30076,-0.28628 c -0.25161,-0.23565 -0.5196,-0.35347 -0.80305,-0.35347 z m 0.0574,0.81178 h 1.00769 c 0.0955,0 0.20401,0.05 0.32504,0.1483 l 0.23409,0.20522 c 0.0924,0.08 0.13849,0.19447 0.13849,0.34416 v 0.55911 h -2.43654 v -0.62124 c 0,-0.12724 0.0525,-0.23086 0.15762,-0.31044 l 0.23409,-0.19596 c 0.10192,-0.086 0.2153,-0.12915 0.33952,-0.12915 z m 8.45943,3.81478 c -0.11147,0 -0.20572,0.041 -0.28215,0.12399 -0.0796,0.08 -0.11938,0.17543 -0.11938,0.28682 v 2.83763 h -5.1449 c -0.1083,0 -0.20254,0.0404 -0.28216,0.11931 -0.0796,0.0799 -0.11937,0.17383 -0.11937,0.28219 0,0.1083 0.0398,0.20197 0.11937,0.2816 0.0796,0.08 0.17386,0.11937 0.28216,0.11937 h 5.94744 v -3.6401 c 0,-0.11139 -0.0383,-0.20719 -0.11473,-0.28682 -0.0796,-0.083 -0.17482,-0.12399 -0.28628,-0.12399 z" />
  </g>
</svg>
